<mxfile host="Electron" modified="2024-08-30T03:34:39.648Z" agent="Mozilla/5.0 (X11; Linux x86_64) AppleWebKit/537.36 (KHTML, like Gecko) draw.io/24.6.4 Chrome/124.0.6367.207 Electron/30.0.6 Safari/537.36" etag="tDfnB5OgWExvnbuIOlnP" version="24.6.4" type="device">
  <diagram name="Polar" id="_DnDYgdtOkd8gtlHDelf">
    <mxGraphModel dx="1671" dy="3452" grid="1" gridSize="10" guides="1" tooltips="1" connect="1" arrows="1" fold="1" page="1" pageScale="1" pageWidth="1169" pageHeight="827" math="0" shadow="0">
      <root>
        <mxCell id="0" />
        <mxCell id="1" parent="0" />
        <mxCell id="N4Os5YdFln9eDBYWi2Pi-1" value="" style="group" parent="1" vertex="1" connectable="0">
          <mxGeometry x="26" y="-2360" width="510" height="510" as="geometry" />
        </mxCell>
        <mxCell id="QSHRZ2VdQ_GqnN1pnhG5-1" value="" style="shape=table;startSize=0;container=1;collapsible=0;childLayout=tableLayout;" parent="N4Os5YdFln9eDBYWi2Pi-1" vertex="1">
          <mxGeometry x="38" y="23" width="450" height="450" as="geometry" />
        </mxCell>
        <mxCell id="QSHRZ2VdQ_GqnN1pnhG5-2" value="" style="shape=tableRow;horizontal=0;startSize=0;swimlaneHead=0;swimlaneBody=0;top=0;left=0;bottom=0;right=0;collapsible=0;dropTarget=0;fillColor=none;points=[[0,0.5],[1,0.5]];portConstraint=eastwest;" parent="QSHRZ2VdQ_GqnN1pnhG5-1" vertex="1">
          <mxGeometry width="450" height="90" as="geometry" />
        </mxCell>
        <mxCell id="QSHRZ2VdQ_GqnN1pnhG5-3" value="" style="shape=partialRectangle;html=1;whiteSpace=wrap;connectable=0;overflow=hidden;fillColor=none;top=0;left=0;bottom=0;right=0;pointerEvents=1;" parent="QSHRZ2VdQ_GqnN1pnhG5-2" vertex="1">
          <mxGeometry width="90" height="90" as="geometry">
            <mxRectangle width="90" height="90" as="alternateBounds" />
          </mxGeometry>
        </mxCell>
        <mxCell id="QSHRZ2VdQ_GqnN1pnhG5-4" value="" style="shape=partialRectangle;html=1;whiteSpace=wrap;connectable=0;overflow=hidden;fillColor=none;top=0;left=0;bottom=0;right=0;pointerEvents=1;" parent="QSHRZ2VdQ_GqnN1pnhG5-2" vertex="1">
          <mxGeometry x="90" width="90" height="90" as="geometry">
            <mxRectangle width="90" height="90" as="alternateBounds" />
          </mxGeometry>
        </mxCell>
        <mxCell id="QSHRZ2VdQ_GqnN1pnhG5-5" value="" style="shape=partialRectangle;html=1;whiteSpace=wrap;connectable=0;overflow=hidden;fillColor=none;top=0;left=0;bottom=0;right=0;pointerEvents=1;" parent="QSHRZ2VdQ_GqnN1pnhG5-2" vertex="1">
          <mxGeometry x="180" width="90" height="90" as="geometry">
            <mxRectangle width="90" height="90" as="alternateBounds" />
          </mxGeometry>
        </mxCell>
        <mxCell id="QSHRZ2VdQ_GqnN1pnhG5-6" value="" style="shape=partialRectangle;html=1;whiteSpace=wrap;connectable=0;overflow=hidden;fillColor=none;top=0;left=0;bottom=0;right=0;pointerEvents=1;" parent="QSHRZ2VdQ_GqnN1pnhG5-2" vertex="1">
          <mxGeometry x="270" width="90" height="90" as="geometry">
            <mxRectangle width="90" height="90" as="alternateBounds" />
          </mxGeometry>
        </mxCell>
        <mxCell id="QSHRZ2VdQ_GqnN1pnhG5-7" value="" style="shape=partialRectangle;html=1;whiteSpace=wrap;connectable=0;overflow=hidden;fillColor=none;top=0;left=0;bottom=0;right=0;pointerEvents=1;" parent="QSHRZ2VdQ_GqnN1pnhG5-2" vertex="1">
          <mxGeometry x="360" width="90" height="90" as="geometry">
            <mxRectangle width="90" height="90" as="alternateBounds" />
          </mxGeometry>
        </mxCell>
        <mxCell id="QSHRZ2VdQ_GqnN1pnhG5-8" value="" style="shape=tableRow;horizontal=0;startSize=0;swimlaneHead=0;swimlaneBody=0;top=0;left=0;bottom=0;right=0;collapsible=0;dropTarget=0;fillColor=none;points=[[0,0.5],[1,0.5]];portConstraint=eastwest;" parent="QSHRZ2VdQ_GqnN1pnhG5-1" vertex="1">
          <mxGeometry y="90" width="450" height="90" as="geometry" />
        </mxCell>
        <mxCell id="QSHRZ2VdQ_GqnN1pnhG5-9" value="" style="shape=partialRectangle;html=1;whiteSpace=wrap;connectable=0;overflow=hidden;fillColor=none;top=0;left=0;bottom=0;right=0;pointerEvents=1;" parent="QSHRZ2VdQ_GqnN1pnhG5-8" vertex="1">
          <mxGeometry width="90" height="90" as="geometry">
            <mxRectangle width="90" height="90" as="alternateBounds" />
          </mxGeometry>
        </mxCell>
        <mxCell id="QSHRZ2VdQ_GqnN1pnhG5-10" value="" style="shape=partialRectangle;html=1;whiteSpace=wrap;connectable=0;overflow=hidden;fillColor=none;top=0;left=0;bottom=0;right=0;pointerEvents=1;" parent="QSHRZ2VdQ_GqnN1pnhG5-8" vertex="1">
          <mxGeometry x="90" width="90" height="90" as="geometry">
            <mxRectangle width="90" height="90" as="alternateBounds" />
          </mxGeometry>
        </mxCell>
        <mxCell id="QSHRZ2VdQ_GqnN1pnhG5-11" value="" style="shape=partialRectangle;html=1;whiteSpace=wrap;connectable=0;overflow=hidden;fillColor=none;top=0;left=0;bottom=0;right=0;pointerEvents=1;" parent="QSHRZ2VdQ_GqnN1pnhG5-8" vertex="1">
          <mxGeometry x="180" width="90" height="90" as="geometry">
            <mxRectangle width="90" height="90" as="alternateBounds" />
          </mxGeometry>
        </mxCell>
        <mxCell id="QSHRZ2VdQ_GqnN1pnhG5-12" value="" style="shape=partialRectangle;html=1;whiteSpace=wrap;connectable=0;overflow=hidden;fillColor=none;top=0;left=0;bottom=0;right=0;pointerEvents=1;" parent="QSHRZ2VdQ_GqnN1pnhG5-8" vertex="1">
          <mxGeometry x="270" width="90" height="90" as="geometry">
            <mxRectangle width="90" height="90" as="alternateBounds" />
          </mxGeometry>
        </mxCell>
        <mxCell id="QSHRZ2VdQ_GqnN1pnhG5-13" value="" style="shape=partialRectangle;html=1;whiteSpace=wrap;connectable=0;overflow=hidden;fillColor=none;top=0;left=0;bottom=0;right=0;pointerEvents=1;" parent="QSHRZ2VdQ_GqnN1pnhG5-8" vertex="1">
          <mxGeometry x="360" width="90" height="90" as="geometry">
            <mxRectangle width="90" height="90" as="alternateBounds" />
          </mxGeometry>
        </mxCell>
        <mxCell id="QSHRZ2VdQ_GqnN1pnhG5-14" value="" style="shape=tableRow;horizontal=0;startSize=0;swimlaneHead=0;swimlaneBody=0;top=0;left=0;bottom=0;right=0;collapsible=0;dropTarget=0;fillColor=none;points=[[0,0.5],[1,0.5]];portConstraint=eastwest;" parent="QSHRZ2VdQ_GqnN1pnhG5-1" vertex="1">
          <mxGeometry y="180" width="450" height="90" as="geometry" />
        </mxCell>
        <mxCell id="QSHRZ2VdQ_GqnN1pnhG5-15" value="" style="shape=partialRectangle;html=1;whiteSpace=wrap;connectable=0;overflow=hidden;fillColor=none;top=0;left=0;bottom=0;right=0;pointerEvents=1;" parent="QSHRZ2VdQ_GqnN1pnhG5-14" vertex="1">
          <mxGeometry width="90" height="90" as="geometry">
            <mxRectangle width="90" height="90" as="alternateBounds" />
          </mxGeometry>
        </mxCell>
        <mxCell id="QSHRZ2VdQ_GqnN1pnhG5-16" value="" style="shape=partialRectangle;html=1;whiteSpace=wrap;connectable=0;overflow=hidden;fillColor=none;top=0;left=0;bottom=0;right=0;pointerEvents=1;" parent="QSHRZ2VdQ_GqnN1pnhG5-14" vertex="1">
          <mxGeometry x="90" width="90" height="90" as="geometry">
            <mxRectangle width="90" height="90" as="alternateBounds" />
          </mxGeometry>
        </mxCell>
        <mxCell id="QSHRZ2VdQ_GqnN1pnhG5-17" value="" style="shape=partialRectangle;html=1;whiteSpace=wrap;connectable=0;overflow=hidden;fillColor=none;top=0;left=0;bottom=0;right=0;pointerEvents=1;" parent="QSHRZ2VdQ_GqnN1pnhG5-14" vertex="1">
          <mxGeometry x="180" width="90" height="90" as="geometry">
            <mxRectangle width="90" height="90" as="alternateBounds" />
          </mxGeometry>
        </mxCell>
        <mxCell id="QSHRZ2VdQ_GqnN1pnhG5-18" value="" style="shape=partialRectangle;html=1;whiteSpace=wrap;connectable=0;overflow=hidden;fillColor=none;top=0;left=0;bottom=0;right=0;pointerEvents=1;" parent="QSHRZ2VdQ_GqnN1pnhG5-14" vertex="1">
          <mxGeometry x="270" width="90" height="90" as="geometry">
            <mxRectangle width="90" height="90" as="alternateBounds" />
          </mxGeometry>
        </mxCell>
        <mxCell id="QSHRZ2VdQ_GqnN1pnhG5-19" value="" style="shape=partialRectangle;html=1;whiteSpace=wrap;connectable=0;overflow=hidden;fillColor=none;top=0;left=0;bottom=0;right=0;pointerEvents=1;" parent="QSHRZ2VdQ_GqnN1pnhG5-14" vertex="1">
          <mxGeometry x="360" width="90" height="90" as="geometry">
            <mxRectangle width="90" height="90" as="alternateBounds" />
          </mxGeometry>
        </mxCell>
        <mxCell id="QSHRZ2VdQ_GqnN1pnhG5-20" value="" style="shape=tableRow;horizontal=0;startSize=0;swimlaneHead=0;swimlaneBody=0;top=0;left=0;bottom=0;right=0;collapsible=0;dropTarget=0;fillColor=none;points=[[0,0.5],[1,0.5]];portConstraint=eastwest;" parent="QSHRZ2VdQ_GqnN1pnhG5-1" vertex="1">
          <mxGeometry y="270" width="450" height="90" as="geometry" />
        </mxCell>
        <mxCell id="QSHRZ2VdQ_GqnN1pnhG5-21" value="" style="shape=partialRectangle;html=1;whiteSpace=wrap;connectable=0;overflow=hidden;fillColor=none;top=0;left=0;bottom=0;right=0;pointerEvents=1;" parent="QSHRZ2VdQ_GqnN1pnhG5-20" vertex="1">
          <mxGeometry width="90" height="90" as="geometry">
            <mxRectangle width="90" height="90" as="alternateBounds" />
          </mxGeometry>
        </mxCell>
        <mxCell id="QSHRZ2VdQ_GqnN1pnhG5-22" value="" style="shape=partialRectangle;html=1;whiteSpace=wrap;connectable=0;overflow=hidden;fillColor=none;top=0;left=0;bottom=0;right=0;pointerEvents=1;" parent="QSHRZ2VdQ_GqnN1pnhG5-20" vertex="1">
          <mxGeometry x="90" width="90" height="90" as="geometry">
            <mxRectangle width="90" height="90" as="alternateBounds" />
          </mxGeometry>
        </mxCell>
        <mxCell id="QSHRZ2VdQ_GqnN1pnhG5-23" value="" style="shape=partialRectangle;html=1;whiteSpace=wrap;connectable=0;overflow=hidden;fillColor=none;top=0;left=0;bottom=0;right=0;pointerEvents=1;" parent="QSHRZ2VdQ_GqnN1pnhG5-20" vertex="1">
          <mxGeometry x="180" width="90" height="90" as="geometry">
            <mxRectangle width="90" height="90" as="alternateBounds" />
          </mxGeometry>
        </mxCell>
        <mxCell id="QSHRZ2VdQ_GqnN1pnhG5-24" value="" style="shape=partialRectangle;html=1;whiteSpace=wrap;connectable=0;overflow=hidden;fillColor=none;top=0;left=0;bottom=0;right=0;pointerEvents=1;" parent="QSHRZ2VdQ_GqnN1pnhG5-20" vertex="1">
          <mxGeometry x="270" width="90" height="90" as="geometry">
            <mxRectangle width="90" height="90" as="alternateBounds" />
          </mxGeometry>
        </mxCell>
        <mxCell id="QSHRZ2VdQ_GqnN1pnhG5-25" value="" style="shape=partialRectangle;html=1;whiteSpace=wrap;connectable=0;overflow=hidden;fillColor=none;top=0;left=0;bottom=0;right=0;pointerEvents=1;" parent="QSHRZ2VdQ_GqnN1pnhG5-20" vertex="1">
          <mxGeometry x="360" width="90" height="90" as="geometry">
            <mxRectangle width="90" height="90" as="alternateBounds" />
          </mxGeometry>
        </mxCell>
        <mxCell id="QSHRZ2VdQ_GqnN1pnhG5-26" value="" style="shape=tableRow;horizontal=0;startSize=0;swimlaneHead=0;swimlaneBody=0;top=0;left=0;bottom=0;right=0;collapsible=0;dropTarget=0;fillColor=none;points=[[0,0.5],[1,0.5]];portConstraint=eastwest;" parent="QSHRZ2VdQ_GqnN1pnhG5-1" vertex="1">
          <mxGeometry y="360" width="450" height="90" as="geometry" />
        </mxCell>
        <mxCell id="QSHRZ2VdQ_GqnN1pnhG5-27" value="" style="shape=partialRectangle;html=1;whiteSpace=wrap;connectable=0;overflow=hidden;fillColor=none;top=0;left=0;bottom=0;right=0;pointerEvents=1;" parent="QSHRZ2VdQ_GqnN1pnhG5-26" vertex="1">
          <mxGeometry width="90" height="90" as="geometry">
            <mxRectangle width="90" height="90" as="alternateBounds" />
          </mxGeometry>
        </mxCell>
        <mxCell id="QSHRZ2VdQ_GqnN1pnhG5-28" value="" style="shape=partialRectangle;html=1;whiteSpace=wrap;connectable=0;overflow=hidden;fillColor=none;top=0;left=0;bottom=0;right=0;pointerEvents=1;" parent="QSHRZ2VdQ_GqnN1pnhG5-26" vertex="1">
          <mxGeometry x="90" width="90" height="90" as="geometry">
            <mxRectangle width="90" height="90" as="alternateBounds" />
          </mxGeometry>
        </mxCell>
        <mxCell id="QSHRZ2VdQ_GqnN1pnhG5-29" value="" style="shape=partialRectangle;html=1;whiteSpace=wrap;connectable=0;overflow=hidden;fillColor=none;top=0;left=0;bottom=0;right=0;pointerEvents=1;" parent="QSHRZ2VdQ_GqnN1pnhG5-26" vertex="1">
          <mxGeometry x="180" width="90" height="90" as="geometry">
            <mxRectangle width="90" height="90" as="alternateBounds" />
          </mxGeometry>
        </mxCell>
        <mxCell id="QSHRZ2VdQ_GqnN1pnhG5-30" value="" style="shape=partialRectangle;html=1;whiteSpace=wrap;connectable=0;overflow=hidden;fillColor=none;top=0;left=0;bottom=0;right=0;pointerEvents=1;" parent="QSHRZ2VdQ_GqnN1pnhG5-26" vertex="1">
          <mxGeometry x="270" width="90" height="90" as="geometry">
            <mxRectangle width="90" height="90" as="alternateBounds" />
          </mxGeometry>
        </mxCell>
        <mxCell id="QSHRZ2VdQ_GqnN1pnhG5-31" value="" style="shape=partialRectangle;html=1;whiteSpace=wrap;connectable=0;overflow=hidden;fillColor=none;top=0;left=0;bottom=0;right=0;pointerEvents=1;" parent="QSHRZ2VdQ_GqnN1pnhG5-26" vertex="1">
          <mxGeometry x="360" width="90" height="90" as="geometry">
            <mxRectangle width="90" height="90" as="alternateBounds" />
          </mxGeometry>
        </mxCell>
        <mxCell id="QSHRZ2VdQ_GqnN1pnhG5-149" value="" style="group" parent="N4Os5YdFln9eDBYWi2Pi-1" vertex="1" connectable="0">
          <mxGeometry width="510" height="510" as="geometry" />
        </mxCell>
        <mxCell id="QSHRZ2VdQ_GqnN1pnhG5-150" value="&lt;font style=&quot;font-size: 24px;&quot;&gt;-2&lt;/font&gt;" style="text;html=1;align=center;verticalAlign=middle;resizable=0;points=[];autosize=1;strokeColor=none;fillColor=none;" parent="QSHRZ2VdQ_GqnN1pnhG5-149" vertex="1">
          <mxGeometry x="58" y="470" width="40" height="40" as="geometry" />
        </mxCell>
        <mxCell id="QSHRZ2VdQ_GqnN1pnhG5-151" value="&lt;font style=&quot;font-size: 24px;&quot;&gt;-1&lt;/font&gt;" style="text;html=1;align=center;verticalAlign=middle;resizable=0;points=[];autosize=1;strokeColor=none;fillColor=none;" parent="QSHRZ2VdQ_GqnN1pnhG5-149" vertex="1">
          <mxGeometry x="148" y="470" width="40" height="40" as="geometry" />
        </mxCell>
        <mxCell id="QSHRZ2VdQ_GqnN1pnhG5-152" value="&lt;font style=&quot;font-size: 24px;&quot;&gt;0&lt;/font&gt;" style="text;html=1;align=center;verticalAlign=middle;resizable=0;points=[];autosize=1;strokeColor=none;fillColor=none;" parent="QSHRZ2VdQ_GqnN1pnhG5-149" vertex="1">
          <mxGeometry x="238" y="470" width="40" height="40" as="geometry" />
        </mxCell>
        <mxCell id="QSHRZ2VdQ_GqnN1pnhG5-153" value="&lt;font style=&quot;font-size: 24px;&quot;&gt;1&lt;/font&gt;" style="text;html=1;align=center;verticalAlign=middle;resizable=0;points=[];autosize=1;strokeColor=none;fillColor=none;" parent="QSHRZ2VdQ_GqnN1pnhG5-149" vertex="1">
          <mxGeometry x="328" y="470" width="40" height="40" as="geometry" />
        </mxCell>
        <mxCell id="QSHRZ2VdQ_GqnN1pnhG5-154" value="&lt;font style=&quot;font-size: 24px;&quot;&gt;2&lt;/font&gt;" style="text;html=1;align=center;verticalAlign=middle;resizable=0;points=[];autosize=1;strokeColor=none;fillColor=none;" parent="QSHRZ2VdQ_GqnN1pnhG5-149" vertex="1">
          <mxGeometry x="418" y="470" width="40" height="40" as="geometry" />
        </mxCell>
        <mxCell id="cl3mPZvJ_X2fQr82eCr3-9" value="&lt;font style=&quot;font-size: 24px;&quot;&gt;2&lt;/font&gt;" style="text;html=1;align=center;verticalAlign=middle;resizable=0;points=[];autosize=1;strokeColor=none;fillColor=none;" vertex="1" parent="QSHRZ2VdQ_GqnN1pnhG5-149">
          <mxGeometry y="53" width="40" height="40" as="geometry" />
        </mxCell>
        <mxCell id="cl3mPZvJ_X2fQr82eCr3-8" value="&lt;font style=&quot;font-size: 24px;&quot;&gt;1&lt;/font&gt;" style="text;html=1;align=center;verticalAlign=middle;resizable=0;points=[];autosize=1;strokeColor=none;fillColor=none;" vertex="1" parent="QSHRZ2VdQ_GqnN1pnhG5-149">
          <mxGeometry y="133" width="40" height="40" as="geometry" />
        </mxCell>
        <mxCell id="cl3mPZvJ_X2fQr82eCr3-7" value="&lt;font style=&quot;font-size: 24px;&quot;&gt;0&lt;/font&gt;" style="text;html=1;align=center;verticalAlign=middle;resizable=0;points=[];autosize=1;strokeColor=none;fillColor=none;" vertex="1" parent="QSHRZ2VdQ_GqnN1pnhG5-149">
          <mxGeometry y="235" width="40" height="40" as="geometry" />
        </mxCell>
        <mxCell id="cl3mPZvJ_X2fQr82eCr3-6" value="&lt;font style=&quot;font-size: 24px;&quot;&gt;-1&lt;/font&gt;" style="text;html=1;align=center;verticalAlign=middle;resizable=0;points=[];autosize=1;strokeColor=none;fillColor=none;" vertex="1" parent="QSHRZ2VdQ_GqnN1pnhG5-149">
          <mxGeometry y="323" width="40" height="40" as="geometry" />
        </mxCell>
        <mxCell id="cl3mPZvJ_X2fQr82eCr3-5" value="&lt;font style=&quot;font-size: 24px;&quot;&gt;-2&lt;/font&gt;" style="text;html=1;align=center;verticalAlign=middle;resizable=0;points=[];autosize=1;strokeColor=none;fillColor=none;" vertex="1" parent="QSHRZ2VdQ_GqnN1pnhG5-149">
          <mxGeometry y="413" width="40" height="40" as="geometry" />
        </mxCell>
        <mxCell id="QSHRZ2VdQ_GqnN1pnhG5-175" value="" style="edgeStyle=none;orthogonalLoop=1;jettySize=auto;html=1;rounded=0;strokeWidth=1;fillColor=#f8cecc;strokeColor=#000000;endArrow=none;endFill=0;entryX=1;entryY=1;entryDx=0;entryDy=0;exitX=0;exitY=0;exitDx=0;exitDy=0;" parent="N4Os5YdFln9eDBYWi2Pi-1" source="QSHRZ2VdQ_GqnN1pnhG5-194" target="QSHRZ2VdQ_GqnN1pnhG5-1" edge="1">
          <mxGeometry width="80" relative="1" as="geometry">
            <mxPoint x="80" y="-40" as="sourcePoint" />
            <mxPoint x="460" y="590" as="targetPoint" />
            <Array as="points" />
          </mxGeometry>
        </mxCell>
        <mxCell id="QSHRZ2VdQ_GqnN1pnhG5-200" value="" style="edgeStyle=none;orthogonalLoop=1;jettySize=auto;html=1;rounded=0;strokeWidth=1;fillColor=#f8cecc;strokeColor=#000000;endArrow=none;endFill=0;entryX=1;entryY=1;entryDx=0;entryDy=0;exitX=0;exitY=0;exitDx=0;exitDy=0;" parent="N4Os5YdFln9eDBYWi2Pi-1" source="QSHRZ2VdQ_GqnN1pnhG5-1" target="QSHRZ2VdQ_GqnN1pnhG5-194" edge="1">
          <mxGeometry width="80" relative="1" as="geometry">
            <mxPoint x="40" y="20" as="sourcePoint" />
            <mxPoint x="490" y="470" as="targetPoint" />
            <Array as="points" />
          </mxGeometry>
        </mxCell>
        <mxCell id="QSHRZ2VdQ_GqnN1pnhG5-194" value="&lt;b&gt;&lt;font style=&quot;font-size: 30px;&quot;&gt;W&lt;/font&gt;&lt;/b&gt;" style="text;strokeColor=default;align=center;fillColor=default;html=1;verticalAlign=middle;whiteSpace=wrap;rounded=0;" parent="N4Os5YdFln9eDBYWi2Pi-1" vertex="1">
          <mxGeometry x="38.000000000000114" y="23" width="30" height="30" as="geometry" />
        </mxCell>
        <mxCell id="QSHRZ2VdQ_GqnN1pnhG5-193" value="&lt;b&gt;&lt;font style=&quot;font-size: 30px;&quot;&gt;N&lt;/font&gt;&lt;/b&gt;" style="text;strokeColor=default;align=center;fillColor=none;html=1;verticalAlign=middle;whiteSpace=wrap;rounded=0;" parent="N4Os5YdFln9eDBYWi2Pi-1" vertex="1">
          <mxGeometry x="457.99999999999994" y="23" width="30" height="30" as="geometry" />
        </mxCell>
        <mxCell id="QSHRZ2VdQ_GqnN1pnhG5-195" value="&lt;b&gt;&lt;font style=&quot;font-size: 30px;&quot;&gt;E&lt;/font&gt;&lt;/b&gt;" style="text;strokeColor=default;align=center;fillColor=default;html=1;verticalAlign=middle;whiteSpace=wrap;rounded=0;" parent="N4Os5YdFln9eDBYWi2Pi-1" vertex="1">
          <mxGeometry x="457.99999999999994" y="443" width="30" height="30" as="geometry" />
        </mxCell>
        <mxCell id="QSHRZ2VdQ_GqnN1pnhG5-196" value="&lt;b&gt;&lt;font style=&quot;font-size: 30px;&quot;&gt;S&lt;/font&gt;&lt;/b&gt;" style="text;strokeColor=default;align=center;fillColor=none;html=1;verticalAlign=middle;whiteSpace=wrap;rounded=0;" parent="N4Os5YdFln9eDBYWi2Pi-1" vertex="1">
          <mxGeometry x="37.999999999999886" y="443" width="30" height="30" as="geometry" />
        </mxCell>
        <mxCell id="cl3mPZvJ_X2fQr82eCr3-1" value="" style="group;flipV=0;flipH=0;" vertex="1" connectable="0" parent="N4Os5YdFln9eDBYWi2Pi-1">
          <mxGeometry x="268" y="133" width="92" height="117" as="geometry" />
        </mxCell>
        <mxCell id="cl3mPZvJ_X2fQr82eCr3-2" value="" style="edgeStyle=none;orthogonalLoop=1;jettySize=auto;html=1;rounded=0;strokeWidth=4;fillColor=#f8cecc;strokeColor=#b85450;curved=0;startArrow=none;startFill=0;targetPerimeterSpacing=0;sourcePerimeterSpacing=0;jumpStyle=none;flowAnimation=0;shadow=0;endSize=6;startSize=6;" edge="1" parent="cl3mPZvJ_X2fQr82eCr3-1">
          <mxGeometry width="80" relative="1" as="geometry">
            <mxPoint y="117" as="sourcePoint" />
            <mxPoint x="92" y="117" as="targetPoint" />
            <Array as="points" />
          </mxGeometry>
        </mxCell>
        <mxCell id="cl3mPZvJ_X2fQr82eCr3-3" value="" style="edgeStyle=none;orthogonalLoop=1;jettySize=auto;html=1;rounded=0;strokeWidth=4;fillColor=#f8cecc;strokeColor=#B85450;curved=0;linecap=round;" edge="1" parent="cl3mPZvJ_X2fQr82eCr3-1">
          <mxGeometry width="80" relative="1" as="geometry">
            <mxPoint y="117" as="sourcePoint" />
            <mxPoint x="90" y="30" as="targetPoint" />
            <Array as="points" />
          </mxGeometry>
        </mxCell>
        <mxCell id="cl3mPZvJ_X2fQr82eCr3-4" value="" style="orthogonalLoop=1;jettySize=auto;html=1;rounded=0;endArrow=none;endFill=0;strokeColor=#B85450;strokeWidth=4;edgeStyle=orthogonalEdgeStyle;curved=1;" edge="1" parent="cl3mPZvJ_X2fQr82eCr3-1">
          <mxGeometry width="80" relative="1" as="geometry">
            <mxPoint x="40" y="80" as="sourcePoint" />
            <mxPoint x="40.25" y="117" as="targetPoint" />
            <Array as="points">
              <mxPoint x="50" y="80" />
              <mxPoint x="50" y="117" />
            </Array>
          </mxGeometry>
        </mxCell>
        <mxCell id="QSHRZ2VdQ_GqnN1pnhG5-32" value="" style="shape=table;startSize=0;container=1;collapsible=0;childLayout=tableLayout;" parent="1" vertex="1">
          <mxGeometry x="674" y="-2337" width="450" height="450" as="geometry" />
        </mxCell>
        <mxCell id="QSHRZ2VdQ_GqnN1pnhG5-33" value="" style="shape=tableRow;horizontal=0;startSize=0;swimlaneHead=0;swimlaneBody=0;strokeColor=inherit;top=0;left=0;bottom=0;right=0;collapsible=0;dropTarget=0;fillColor=none;points=[[0,0.5],[1,0.5]];portConstraint=eastwest;" parent="QSHRZ2VdQ_GqnN1pnhG5-32" vertex="1">
          <mxGeometry width="450" height="45" as="geometry" />
        </mxCell>
        <mxCell id="QSHRZ2VdQ_GqnN1pnhG5-34" value="" style="shape=partialRectangle;html=1;whiteSpace=wrap;connectable=0;strokeColor=inherit;overflow=hidden;fillColor=none;top=0;left=0;bottom=0;right=0;pointerEvents=1;" parent="QSHRZ2VdQ_GqnN1pnhG5-33" vertex="1">
          <mxGeometry width="45" height="45" as="geometry">
            <mxRectangle width="45" height="45" as="alternateBounds" />
          </mxGeometry>
        </mxCell>
        <mxCell id="QSHRZ2VdQ_GqnN1pnhG5-35" value="" style="shape=partialRectangle;html=1;whiteSpace=wrap;connectable=0;strokeColor=inherit;overflow=hidden;fillColor=none;top=0;left=0;bottom=0;right=0;pointerEvents=1;" parent="QSHRZ2VdQ_GqnN1pnhG5-33" vertex="1">
          <mxGeometry x="45" width="45" height="45" as="geometry">
            <mxRectangle width="45" height="45" as="alternateBounds" />
          </mxGeometry>
        </mxCell>
        <mxCell id="QSHRZ2VdQ_GqnN1pnhG5-36" value="" style="shape=partialRectangle;html=1;whiteSpace=wrap;connectable=0;strokeColor=inherit;overflow=hidden;fillColor=none;top=0;left=0;bottom=0;right=0;pointerEvents=1;" parent="QSHRZ2VdQ_GqnN1pnhG5-33" vertex="1">
          <mxGeometry x="90" width="45" height="45" as="geometry">
            <mxRectangle width="45" height="45" as="alternateBounds" />
          </mxGeometry>
        </mxCell>
        <mxCell id="QSHRZ2VdQ_GqnN1pnhG5-37" value="" style="shape=partialRectangle;html=1;whiteSpace=wrap;connectable=0;strokeColor=inherit;overflow=hidden;fillColor=none;top=0;left=0;bottom=0;right=0;pointerEvents=1;" parent="QSHRZ2VdQ_GqnN1pnhG5-33" vertex="1">
          <mxGeometry x="135" width="45" height="45" as="geometry">
            <mxRectangle width="45" height="45" as="alternateBounds" />
          </mxGeometry>
        </mxCell>
        <mxCell id="QSHRZ2VdQ_GqnN1pnhG5-38" value="" style="shape=partialRectangle;html=1;whiteSpace=wrap;connectable=0;strokeColor=inherit;overflow=hidden;fillColor=none;top=0;left=0;bottom=0;right=0;pointerEvents=1;" parent="QSHRZ2VdQ_GqnN1pnhG5-33" vertex="1">
          <mxGeometry x="180" width="45" height="45" as="geometry">
            <mxRectangle width="45" height="45" as="alternateBounds" />
          </mxGeometry>
        </mxCell>
        <mxCell id="QSHRZ2VdQ_GqnN1pnhG5-39" value="" style="shape=partialRectangle;html=1;whiteSpace=wrap;connectable=0;strokeColor=inherit;overflow=hidden;fillColor=none;top=0;left=0;bottom=0;right=0;pointerEvents=1;" parent="QSHRZ2VdQ_GqnN1pnhG5-33" vertex="1">
          <mxGeometry x="225" width="45" height="45" as="geometry">
            <mxRectangle width="45" height="45" as="alternateBounds" />
          </mxGeometry>
        </mxCell>
        <mxCell id="QSHRZ2VdQ_GqnN1pnhG5-40" value="" style="shape=partialRectangle;html=1;whiteSpace=wrap;connectable=0;strokeColor=inherit;overflow=hidden;fillColor=none;top=0;left=0;bottom=0;right=0;pointerEvents=1;" parent="QSHRZ2VdQ_GqnN1pnhG5-33" vertex="1">
          <mxGeometry x="270" width="45" height="45" as="geometry">
            <mxRectangle width="45" height="45" as="alternateBounds" />
          </mxGeometry>
        </mxCell>
        <mxCell id="QSHRZ2VdQ_GqnN1pnhG5-41" value="" style="shape=partialRectangle;html=1;whiteSpace=wrap;connectable=0;strokeColor=inherit;overflow=hidden;fillColor=none;top=0;left=0;bottom=0;right=0;pointerEvents=1;" parent="QSHRZ2VdQ_GqnN1pnhG5-33" vertex="1">
          <mxGeometry x="315" width="45" height="45" as="geometry">
            <mxRectangle width="45" height="45" as="alternateBounds" />
          </mxGeometry>
        </mxCell>
        <mxCell id="QSHRZ2VdQ_GqnN1pnhG5-42" value="" style="shape=partialRectangle;html=1;whiteSpace=wrap;connectable=0;strokeColor=inherit;overflow=hidden;fillColor=none;top=0;left=0;bottom=0;right=0;pointerEvents=1;" parent="QSHRZ2VdQ_GqnN1pnhG5-33" vertex="1">
          <mxGeometry x="360" width="45" height="45" as="geometry">
            <mxRectangle width="45" height="45" as="alternateBounds" />
          </mxGeometry>
        </mxCell>
        <mxCell id="QSHRZ2VdQ_GqnN1pnhG5-43" value="" style="shape=partialRectangle;html=1;whiteSpace=wrap;connectable=0;strokeColor=inherit;overflow=hidden;fillColor=none;top=0;left=0;bottom=0;right=0;pointerEvents=1;" parent="QSHRZ2VdQ_GqnN1pnhG5-33" vertex="1">
          <mxGeometry x="405" width="45" height="45" as="geometry">
            <mxRectangle width="45" height="45" as="alternateBounds" />
          </mxGeometry>
        </mxCell>
        <mxCell id="QSHRZ2VdQ_GqnN1pnhG5-44" value="" style="shape=tableRow;horizontal=0;startSize=0;swimlaneHead=0;swimlaneBody=0;strokeColor=inherit;top=0;left=0;bottom=0;right=0;collapsible=0;dropTarget=0;fillColor=none;points=[[0,0.5],[1,0.5]];portConstraint=eastwest;" parent="QSHRZ2VdQ_GqnN1pnhG5-32" vertex="1">
          <mxGeometry y="45" width="450" height="45" as="geometry" />
        </mxCell>
        <mxCell id="QSHRZ2VdQ_GqnN1pnhG5-45" value="" style="shape=partialRectangle;html=1;whiteSpace=wrap;connectable=0;strokeColor=inherit;overflow=hidden;fillColor=none;top=0;left=0;bottom=0;right=0;pointerEvents=1;" parent="QSHRZ2VdQ_GqnN1pnhG5-44" vertex="1">
          <mxGeometry width="45" height="45" as="geometry">
            <mxRectangle width="45" height="45" as="alternateBounds" />
          </mxGeometry>
        </mxCell>
        <mxCell id="QSHRZ2VdQ_GqnN1pnhG5-46" value="" style="shape=partialRectangle;html=1;whiteSpace=wrap;connectable=0;strokeColor=inherit;overflow=hidden;fillColor=none;top=0;left=0;bottom=0;right=0;pointerEvents=1;" parent="QSHRZ2VdQ_GqnN1pnhG5-44" vertex="1">
          <mxGeometry x="45" width="45" height="45" as="geometry">
            <mxRectangle width="45" height="45" as="alternateBounds" />
          </mxGeometry>
        </mxCell>
        <mxCell id="QSHRZ2VdQ_GqnN1pnhG5-47" value="" style="shape=partialRectangle;html=1;whiteSpace=wrap;connectable=0;strokeColor=inherit;overflow=hidden;fillColor=none;top=0;left=0;bottom=0;right=0;pointerEvents=1;" parent="QSHRZ2VdQ_GqnN1pnhG5-44" vertex="1">
          <mxGeometry x="90" width="45" height="45" as="geometry">
            <mxRectangle width="45" height="45" as="alternateBounds" />
          </mxGeometry>
        </mxCell>
        <mxCell id="QSHRZ2VdQ_GqnN1pnhG5-48" value="" style="shape=partialRectangle;html=1;whiteSpace=wrap;connectable=0;strokeColor=inherit;overflow=hidden;fillColor=none;top=0;left=0;bottom=0;right=0;pointerEvents=1;" parent="QSHRZ2VdQ_GqnN1pnhG5-44" vertex="1">
          <mxGeometry x="135" width="45" height="45" as="geometry">
            <mxRectangle width="45" height="45" as="alternateBounds" />
          </mxGeometry>
        </mxCell>
        <mxCell id="QSHRZ2VdQ_GqnN1pnhG5-49" value="" style="shape=partialRectangle;html=1;whiteSpace=wrap;connectable=0;strokeColor=inherit;overflow=hidden;fillColor=none;top=0;left=0;bottom=0;right=0;pointerEvents=1;" parent="QSHRZ2VdQ_GqnN1pnhG5-44" vertex="1">
          <mxGeometry x="180" width="45" height="45" as="geometry">
            <mxRectangle width="45" height="45" as="alternateBounds" />
          </mxGeometry>
        </mxCell>
        <mxCell id="QSHRZ2VdQ_GqnN1pnhG5-50" value="" style="shape=partialRectangle;html=1;whiteSpace=wrap;connectable=0;strokeColor=inherit;overflow=hidden;fillColor=none;top=0;left=0;bottom=0;right=0;pointerEvents=1;" parent="QSHRZ2VdQ_GqnN1pnhG5-44" vertex="1">
          <mxGeometry x="225" width="45" height="45" as="geometry">
            <mxRectangle width="45" height="45" as="alternateBounds" />
          </mxGeometry>
        </mxCell>
        <mxCell id="QSHRZ2VdQ_GqnN1pnhG5-51" value="" style="shape=partialRectangle;html=1;whiteSpace=wrap;connectable=0;strokeColor=inherit;overflow=hidden;fillColor=none;top=0;left=0;bottom=0;right=0;pointerEvents=1;" parent="QSHRZ2VdQ_GqnN1pnhG5-44" vertex="1">
          <mxGeometry x="270" width="45" height="45" as="geometry">
            <mxRectangle width="45" height="45" as="alternateBounds" />
          </mxGeometry>
        </mxCell>
        <mxCell id="QSHRZ2VdQ_GqnN1pnhG5-52" value="" style="shape=partialRectangle;html=1;whiteSpace=wrap;connectable=0;strokeColor=inherit;overflow=hidden;fillColor=none;top=0;left=0;bottom=0;right=0;pointerEvents=1;" parent="QSHRZ2VdQ_GqnN1pnhG5-44" vertex="1">
          <mxGeometry x="315" width="45" height="45" as="geometry">
            <mxRectangle width="45" height="45" as="alternateBounds" />
          </mxGeometry>
        </mxCell>
        <mxCell id="QSHRZ2VdQ_GqnN1pnhG5-53" value="" style="shape=partialRectangle;html=1;whiteSpace=wrap;connectable=0;strokeColor=inherit;overflow=hidden;fillColor=none;top=0;left=0;bottom=0;right=0;pointerEvents=1;" parent="QSHRZ2VdQ_GqnN1pnhG5-44" vertex="1">
          <mxGeometry x="360" width="45" height="45" as="geometry">
            <mxRectangle width="45" height="45" as="alternateBounds" />
          </mxGeometry>
        </mxCell>
        <mxCell id="QSHRZ2VdQ_GqnN1pnhG5-54" value="" style="shape=partialRectangle;html=1;whiteSpace=wrap;connectable=0;strokeColor=inherit;overflow=hidden;fillColor=none;top=0;left=0;bottom=0;right=0;pointerEvents=1;" parent="QSHRZ2VdQ_GqnN1pnhG5-44" vertex="1">
          <mxGeometry x="405" width="45" height="45" as="geometry">
            <mxRectangle width="45" height="45" as="alternateBounds" />
          </mxGeometry>
        </mxCell>
        <mxCell id="QSHRZ2VdQ_GqnN1pnhG5-55" value="" style="shape=tableRow;horizontal=0;startSize=0;swimlaneHead=0;swimlaneBody=0;strokeColor=inherit;top=0;left=0;bottom=0;right=0;collapsible=0;dropTarget=0;fillColor=none;points=[[0,0.5],[1,0.5]];portConstraint=eastwest;" parent="QSHRZ2VdQ_GqnN1pnhG5-32" vertex="1">
          <mxGeometry y="90" width="450" height="45" as="geometry" />
        </mxCell>
        <mxCell id="QSHRZ2VdQ_GqnN1pnhG5-56" value="" style="shape=partialRectangle;html=1;whiteSpace=wrap;connectable=0;strokeColor=inherit;overflow=hidden;fillColor=none;top=0;left=0;bottom=0;right=0;pointerEvents=1;" parent="QSHRZ2VdQ_GqnN1pnhG5-55" vertex="1">
          <mxGeometry width="45" height="45" as="geometry">
            <mxRectangle width="45" height="45" as="alternateBounds" />
          </mxGeometry>
        </mxCell>
        <mxCell id="QSHRZ2VdQ_GqnN1pnhG5-57" value="" style="shape=partialRectangle;html=1;whiteSpace=wrap;connectable=0;strokeColor=inherit;overflow=hidden;fillColor=none;top=0;left=0;bottom=0;right=0;pointerEvents=1;" parent="QSHRZ2VdQ_GqnN1pnhG5-55" vertex="1">
          <mxGeometry x="45" width="45" height="45" as="geometry">
            <mxRectangle width="45" height="45" as="alternateBounds" />
          </mxGeometry>
        </mxCell>
        <mxCell id="QSHRZ2VdQ_GqnN1pnhG5-58" value="" style="shape=partialRectangle;html=1;whiteSpace=wrap;connectable=0;strokeColor=inherit;overflow=hidden;fillColor=none;top=0;left=0;bottom=0;right=0;pointerEvents=1;" parent="QSHRZ2VdQ_GqnN1pnhG5-55" vertex="1">
          <mxGeometry x="90" width="45" height="45" as="geometry">
            <mxRectangle width="45" height="45" as="alternateBounds" />
          </mxGeometry>
        </mxCell>
        <mxCell id="QSHRZ2VdQ_GqnN1pnhG5-59" value="" style="shape=partialRectangle;html=1;whiteSpace=wrap;connectable=0;strokeColor=inherit;overflow=hidden;fillColor=none;top=0;left=0;bottom=0;right=0;pointerEvents=1;" parent="QSHRZ2VdQ_GqnN1pnhG5-55" vertex="1">
          <mxGeometry x="135" width="45" height="45" as="geometry">
            <mxRectangle width="45" height="45" as="alternateBounds" />
          </mxGeometry>
        </mxCell>
        <mxCell id="QSHRZ2VdQ_GqnN1pnhG5-60" value="" style="shape=partialRectangle;html=1;whiteSpace=wrap;connectable=0;strokeColor=inherit;overflow=hidden;fillColor=none;top=0;left=0;bottom=0;right=0;pointerEvents=1;" parent="QSHRZ2VdQ_GqnN1pnhG5-55" vertex="1">
          <mxGeometry x="180" width="45" height="45" as="geometry">
            <mxRectangle width="45" height="45" as="alternateBounds" />
          </mxGeometry>
        </mxCell>
        <mxCell id="QSHRZ2VdQ_GqnN1pnhG5-61" value="" style="shape=partialRectangle;html=1;whiteSpace=wrap;connectable=0;strokeColor=inherit;overflow=hidden;fillColor=none;top=0;left=0;bottom=0;right=0;pointerEvents=1;" parent="QSHRZ2VdQ_GqnN1pnhG5-55" vertex="1">
          <mxGeometry x="225" width="45" height="45" as="geometry">
            <mxRectangle width="45" height="45" as="alternateBounds" />
          </mxGeometry>
        </mxCell>
        <mxCell id="QSHRZ2VdQ_GqnN1pnhG5-62" value="" style="shape=partialRectangle;html=1;whiteSpace=wrap;connectable=0;strokeColor=inherit;overflow=hidden;fillColor=none;top=0;left=0;bottom=0;right=0;pointerEvents=1;" parent="QSHRZ2VdQ_GqnN1pnhG5-55" vertex="1">
          <mxGeometry x="270" width="45" height="45" as="geometry">
            <mxRectangle width="45" height="45" as="alternateBounds" />
          </mxGeometry>
        </mxCell>
        <mxCell id="QSHRZ2VdQ_GqnN1pnhG5-63" value="" style="shape=partialRectangle;html=1;whiteSpace=wrap;connectable=0;strokeColor=inherit;overflow=hidden;fillColor=none;top=0;left=0;bottom=0;right=0;pointerEvents=1;" parent="QSHRZ2VdQ_GqnN1pnhG5-55" vertex="1">
          <mxGeometry x="315" width="45" height="45" as="geometry">
            <mxRectangle width="45" height="45" as="alternateBounds" />
          </mxGeometry>
        </mxCell>
        <mxCell id="QSHRZ2VdQ_GqnN1pnhG5-64" value="" style="shape=partialRectangle;html=1;whiteSpace=wrap;connectable=0;strokeColor=inherit;overflow=hidden;fillColor=none;top=0;left=0;bottom=0;right=0;pointerEvents=1;" parent="QSHRZ2VdQ_GqnN1pnhG5-55" vertex="1">
          <mxGeometry x="360" width="45" height="45" as="geometry">
            <mxRectangle width="45" height="45" as="alternateBounds" />
          </mxGeometry>
        </mxCell>
        <mxCell id="QSHRZ2VdQ_GqnN1pnhG5-65" value="" style="shape=partialRectangle;html=1;whiteSpace=wrap;connectable=0;strokeColor=inherit;overflow=hidden;fillColor=none;top=0;left=0;bottom=0;right=0;pointerEvents=1;" parent="QSHRZ2VdQ_GqnN1pnhG5-55" vertex="1">
          <mxGeometry x="405" width="45" height="45" as="geometry">
            <mxRectangle width="45" height="45" as="alternateBounds" />
          </mxGeometry>
        </mxCell>
        <mxCell id="QSHRZ2VdQ_GqnN1pnhG5-66" value="" style="shape=tableRow;horizontal=0;startSize=0;swimlaneHead=0;swimlaneBody=0;strokeColor=inherit;top=0;left=0;bottom=0;right=0;collapsible=0;dropTarget=0;fillColor=none;points=[[0,0.5],[1,0.5]];portConstraint=eastwest;" parent="QSHRZ2VdQ_GqnN1pnhG5-32" vertex="1">
          <mxGeometry y="135" width="450" height="45" as="geometry" />
        </mxCell>
        <mxCell id="QSHRZ2VdQ_GqnN1pnhG5-67" value="" style="shape=partialRectangle;html=1;whiteSpace=wrap;connectable=0;strokeColor=inherit;overflow=hidden;fillColor=none;top=0;left=0;bottom=0;right=0;pointerEvents=1;" parent="QSHRZ2VdQ_GqnN1pnhG5-66" vertex="1">
          <mxGeometry width="45" height="45" as="geometry">
            <mxRectangle width="45" height="45" as="alternateBounds" />
          </mxGeometry>
        </mxCell>
        <mxCell id="QSHRZ2VdQ_GqnN1pnhG5-68" value="" style="shape=partialRectangle;html=1;whiteSpace=wrap;connectable=0;strokeColor=inherit;overflow=hidden;fillColor=none;top=0;left=0;bottom=0;right=0;pointerEvents=1;" parent="QSHRZ2VdQ_GqnN1pnhG5-66" vertex="1">
          <mxGeometry x="45" width="45" height="45" as="geometry">
            <mxRectangle width="45" height="45" as="alternateBounds" />
          </mxGeometry>
        </mxCell>
        <mxCell id="QSHRZ2VdQ_GqnN1pnhG5-69" value="" style="shape=partialRectangle;html=1;whiteSpace=wrap;connectable=0;strokeColor=inherit;overflow=hidden;fillColor=none;top=0;left=0;bottom=0;right=0;pointerEvents=1;" parent="QSHRZ2VdQ_GqnN1pnhG5-66" vertex="1">
          <mxGeometry x="90" width="45" height="45" as="geometry">
            <mxRectangle width="45" height="45" as="alternateBounds" />
          </mxGeometry>
        </mxCell>
        <mxCell id="QSHRZ2VdQ_GqnN1pnhG5-70" value="" style="shape=partialRectangle;html=1;whiteSpace=wrap;connectable=0;strokeColor=inherit;overflow=hidden;fillColor=none;top=0;left=0;bottom=0;right=0;pointerEvents=1;" parent="QSHRZ2VdQ_GqnN1pnhG5-66" vertex="1">
          <mxGeometry x="135" width="45" height="45" as="geometry">
            <mxRectangle width="45" height="45" as="alternateBounds" />
          </mxGeometry>
        </mxCell>
        <mxCell id="QSHRZ2VdQ_GqnN1pnhG5-71" value="" style="shape=partialRectangle;html=1;whiteSpace=wrap;connectable=0;strokeColor=inherit;overflow=hidden;fillColor=none;top=0;left=0;bottom=0;right=0;pointerEvents=1;" parent="QSHRZ2VdQ_GqnN1pnhG5-66" vertex="1">
          <mxGeometry x="180" width="45" height="45" as="geometry">
            <mxRectangle width="45" height="45" as="alternateBounds" />
          </mxGeometry>
        </mxCell>
        <mxCell id="QSHRZ2VdQ_GqnN1pnhG5-72" value="" style="shape=partialRectangle;html=1;whiteSpace=wrap;connectable=0;strokeColor=inherit;overflow=hidden;fillColor=none;top=0;left=0;bottom=0;right=0;pointerEvents=1;" parent="QSHRZ2VdQ_GqnN1pnhG5-66" vertex="1">
          <mxGeometry x="225" width="45" height="45" as="geometry">
            <mxRectangle width="45" height="45" as="alternateBounds" />
          </mxGeometry>
        </mxCell>
        <mxCell id="QSHRZ2VdQ_GqnN1pnhG5-73" value="" style="shape=partialRectangle;html=1;whiteSpace=wrap;connectable=0;strokeColor=inherit;overflow=hidden;fillColor=none;top=0;left=0;bottom=0;right=0;pointerEvents=1;" parent="QSHRZ2VdQ_GqnN1pnhG5-66" vertex="1">
          <mxGeometry x="270" width="45" height="45" as="geometry">
            <mxRectangle width="45" height="45" as="alternateBounds" />
          </mxGeometry>
        </mxCell>
        <mxCell id="QSHRZ2VdQ_GqnN1pnhG5-74" value="" style="shape=partialRectangle;html=1;whiteSpace=wrap;connectable=0;strokeColor=inherit;overflow=hidden;fillColor=none;top=0;left=0;bottom=0;right=0;pointerEvents=1;" parent="QSHRZ2VdQ_GqnN1pnhG5-66" vertex="1">
          <mxGeometry x="315" width="45" height="45" as="geometry">
            <mxRectangle width="45" height="45" as="alternateBounds" />
          </mxGeometry>
        </mxCell>
        <mxCell id="QSHRZ2VdQ_GqnN1pnhG5-75" value="" style="shape=partialRectangle;html=1;whiteSpace=wrap;connectable=0;strokeColor=inherit;overflow=hidden;fillColor=none;top=0;left=0;bottom=0;right=0;pointerEvents=1;" parent="QSHRZ2VdQ_GqnN1pnhG5-66" vertex="1">
          <mxGeometry x="360" width="45" height="45" as="geometry">
            <mxRectangle width="45" height="45" as="alternateBounds" />
          </mxGeometry>
        </mxCell>
        <mxCell id="QSHRZ2VdQ_GqnN1pnhG5-76" value="" style="shape=partialRectangle;html=1;whiteSpace=wrap;connectable=0;strokeColor=inherit;overflow=hidden;fillColor=none;top=0;left=0;bottom=0;right=0;pointerEvents=1;" parent="QSHRZ2VdQ_GqnN1pnhG5-66" vertex="1">
          <mxGeometry x="405" width="45" height="45" as="geometry">
            <mxRectangle width="45" height="45" as="alternateBounds" />
          </mxGeometry>
        </mxCell>
        <mxCell id="QSHRZ2VdQ_GqnN1pnhG5-77" value="" style="shape=tableRow;horizontal=0;startSize=0;swimlaneHead=0;swimlaneBody=0;strokeColor=inherit;top=0;left=0;bottom=0;right=0;collapsible=0;dropTarget=0;fillColor=none;points=[[0,0.5],[1,0.5]];portConstraint=eastwest;" parent="QSHRZ2VdQ_GqnN1pnhG5-32" vertex="1">
          <mxGeometry y="180" width="450" height="45" as="geometry" />
        </mxCell>
        <mxCell id="QSHRZ2VdQ_GqnN1pnhG5-78" value="" style="shape=partialRectangle;html=1;whiteSpace=wrap;connectable=0;strokeColor=inherit;overflow=hidden;fillColor=none;top=0;left=0;bottom=0;right=0;pointerEvents=1;" parent="QSHRZ2VdQ_GqnN1pnhG5-77" vertex="1">
          <mxGeometry width="45" height="45" as="geometry">
            <mxRectangle width="45" height="45" as="alternateBounds" />
          </mxGeometry>
        </mxCell>
        <mxCell id="QSHRZ2VdQ_GqnN1pnhG5-79" value="" style="shape=partialRectangle;html=1;whiteSpace=wrap;connectable=0;strokeColor=inherit;overflow=hidden;fillColor=none;top=0;left=0;bottom=0;right=0;pointerEvents=1;" parent="QSHRZ2VdQ_GqnN1pnhG5-77" vertex="1">
          <mxGeometry x="45" width="45" height="45" as="geometry">
            <mxRectangle width="45" height="45" as="alternateBounds" />
          </mxGeometry>
        </mxCell>
        <mxCell id="QSHRZ2VdQ_GqnN1pnhG5-80" value="" style="shape=partialRectangle;html=1;whiteSpace=wrap;connectable=0;strokeColor=inherit;overflow=hidden;fillColor=none;top=0;left=0;bottom=0;right=0;pointerEvents=1;" parent="QSHRZ2VdQ_GqnN1pnhG5-77" vertex="1">
          <mxGeometry x="90" width="45" height="45" as="geometry">
            <mxRectangle width="45" height="45" as="alternateBounds" />
          </mxGeometry>
        </mxCell>
        <mxCell id="QSHRZ2VdQ_GqnN1pnhG5-81" value="" style="shape=partialRectangle;html=1;whiteSpace=wrap;connectable=0;strokeColor=inherit;overflow=hidden;fillColor=none;top=0;left=0;bottom=0;right=0;pointerEvents=1;" parent="QSHRZ2VdQ_GqnN1pnhG5-77" vertex="1">
          <mxGeometry x="135" width="45" height="45" as="geometry">
            <mxRectangle width="45" height="45" as="alternateBounds" />
          </mxGeometry>
        </mxCell>
        <mxCell id="QSHRZ2VdQ_GqnN1pnhG5-82" value="" style="shape=partialRectangle;html=1;whiteSpace=wrap;connectable=0;strokeColor=inherit;overflow=hidden;fillColor=none;top=0;left=0;bottom=0;right=0;pointerEvents=1;" parent="QSHRZ2VdQ_GqnN1pnhG5-77" vertex="1">
          <mxGeometry x="180" width="45" height="45" as="geometry">
            <mxRectangle width="45" height="45" as="alternateBounds" />
          </mxGeometry>
        </mxCell>
        <mxCell id="QSHRZ2VdQ_GqnN1pnhG5-83" value="" style="shape=partialRectangle;html=1;whiteSpace=wrap;connectable=0;strokeColor=inherit;overflow=hidden;fillColor=none;top=0;left=0;bottom=0;right=0;pointerEvents=1;" parent="QSHRZ2VdQ_GqnN1pnhG5-77" vertex="1">
          <mxGeometry x="225" width="45" height="45" as="geometry">
            <mxRectangle width="45" height="45" as="alternateBounds" />
          </mxGeometry>
        </mxCell>
        <mxCell id="QSHRZ2VdQ_GqnN1pnhG5-84" value="" style="shape=partialRectangle;html=1;whiteSpace=wrap;connectable=0;strokeColor=inherit;overflow=hidden;fillColor=none;top=0;left=0;bottom=0;right=0;pointerEvents=1;" parent="QSHRZ2VdQ_GqnN1pnhG5-77" vertex="1">
          <mxGeometry x="270" width="45" height="45" as="geometry">
            <mxRectangle width="45" height="45" as="alternateBounds" />
          </mxGeometry>
        </mxCell>
        <mxCell id="QSHRZ2VdQ_GqnN1pnhG5-85" value="" style="shape=partialRectangle;html=1;whiteSpace=wrap;connectable=0;strokeColor=inherit;overflow=hidden;fillColor=none;top=0;left=0;bottom=0;right=0;pointerEvents=1;" parent="QSHRZ2VdQ_GqnN1pnhG5-77" vertex="1">
          <mxGeometry x="315" width="45" height="45" as="geometry">
            <mxRectangle width="45" height="45" as="alternateBounds" />
          </mxGeometry>
        </mxCell>
        <mxCell id="QSHRZ2VdQ_GqnN1pnhG5-86" value="" style="shape=partialRectangle;html=1;whiteSpace=wrap;connectable=0;strokeColor=inherit;overflow=hidden;fillColor=none;top=0;left=0;bottom=0;right=0;pointerEvents=1;" parent="QSHRZ2VdQ_GqnN1pnhG5-77" vertex="1">
          <mxGeometry x="360" width="45" height="45" as="geometry">
            <mxRectangle width="45" height="45" as="alternateBounds" />
          </mxGeometry>
        </mxCell>
        <mxCell id="QSHRZ2VdQ_GqnN1pnhG5-87" value="" style="shape=partialRectangle;html=1;whiteSpace=wrap;connectable=0;strokeColor=inherit;overflow=hidden;fillColor=none;top=0;left=0;bottom=0;right=0;pointerEvents=1;" parent="QSHRZ2VdQ_GqnN1pnhG5-77" vertex="1">
          <mxGeometry x="405" width="45" height="45" as="geometry">
            <mxRectangle width="45" height="45" as="alternateBounds" />
          </mxGeometry>
        </mxCell>
        <mxCell id="QSHRZ2VdQ_GqnN1pnhG5-88" value="" style="shape=tableRow;horizontal=0;startSize=0;swimlaneHead=0;swimlaneBody=0;strokeColor=inherit;top=0;left=0;bottom=0;right=0;collapsible=0;dropTarget=0;fillColor=none;points=[[0,0.5],[1,0.5]];portConstraint=eastwest;" parent="QSHRZ2VdQ_GqnN1pnhG5-32" vertex="1">
          <mxGeometry y="225" width="450" height="45" as="geometry" />
        </mxCell>
        <mxCell id="QSHRZ2VdQ_GqnN1pnhG5-89" value="" style="shape=partialRectangle;html=1;whiteSpace=wrap;connectable=0;strokeColor=inherit;overflow=hidden;fillColor=none;top=0;left=0;bottom=0;right=0;pointerEvents=1;" parent="QSHRZ2VdQ_GqnN1pnhG5-88" vertex="1">
          <mxGeometry width="45" height="45" as="geometry">
            <mxRectangle width="45" height="45" as="alternateBounds" />
          </mxGeometry>
        </mxCell>
        <mxCell id="QSHRZ2VdQ_GqnN1pnhG5-90" value="" style="shape=partialRectangle;html=1;whiteSpace=wrap;connectable=0;strokeColor=inherit;overflow=hidden;fillColor=none;top=0;left=0;bottom=0;right=0;pointerEvents=1;" parent="QSHRZ2VdQ_GqnN1pnhG5-88" vertex="1">
          <mxGeometry x="45" width="45" height="45" as="geometry">
            <mxRectangle width="45" height="45" as="alternateBounds" />
          </mxGeometry>
        </mxCell>
        <mxCell id="QSHRZ2VdQ_GqnN1pnhG5-91" value="" style="shape=partialRectangle;html=1;whiteSpace=wrap;connectable=0;strokeColor=inherit;overflow=hidden;fillColor=none;top=0;left=0;bottom=0;right=0;pointerEvents=1;" parent="QSHRZ2VdQ_GqnN1pnhG5-88" vertex="1">
          <mxGeometry x="90" width="45" height="45" as="geometry">
            <mxRectangle width="45" height="45" as="alternateBounds" />
          </mxGeometry>
        </mxCell>
        <mxCell id="QSHRZ2VdQ_GqnN1pnhG5-92" value="" style="shape=partialRectangle;html=1;whiteSpace=wrap;connectable=0;strokeColor=inherit;overflow=hidden;fillColor=none;top=0;left=0;bottom=0;right=0;pointerEvents=1;" parent="QSHRZ2VdQ_GqnN1pnhG5-88" vertex="1">
          <mxGeometry x="135" width="45" height="45" as="geometry">
            <mxRectangle width="45" height="45" as="alternateBounds" />
          </mxGeometry>
        </mxCell>
        <mxCell id="QSHRZ2VdQ_GqnN1pnhG5-93" value="" style="shape=partialRectangle;html=1;whiteSpace=wrap;connectable=0;strokeColor=inherit;overflow=hidden;fillColor=none;top=0;left=0;bottom=0;right=0;pointerEvents=1;" parent="QSHRZ2VdQ_GqnN1pnhG5-88" vertex="1">
          <mxGeometry x="180" width="45" height="45" as="geometry">
            <mxRectangle width="45" height="45" as="alternateBounds" />
          </mxGeometry>
        </mxCell>
        <mxCell id="QSHRZ2VdQ_GqnN1pnhG5-94" value="" style="shape=partialRectangle;html=1;whiteSpace=wrap;connectable=0;strokeColor=inherit;overflow=hidden;fillColor=none;top=0;left=0;bottom=0;right=0;pointerEvents=1;" parent="QSHRZ2VdQ_GqnN1pnhG5-88" vertex="1">
          <mxGeometry x="225" width="45" height="45" as="geometry">
            <mxRectangle width="45" height="45" as="alternateBounds" />
          </mxGeometry>
        </mxCell>
        <mxCell id="QSHRZ2VdQ_GqnN1pnhG5-95" value="" style="shape=partialRectangle;html=1;whiteSpace=wrap;connectable=0;strokeColor=inherit;overflow=hidden;fillColor=none;top=0;left=0;bottom=0;right=0;pointerEvents=1;" parent="QSHRZ2VdQ_GqnN1pnhG5-88" vertex="1">
          <mxGeometry x="270" width="45" height="45" as="geometry">
            <mxRectangle width="45" height="45" as="alternateBounds" />
          </mxGeometry>
        </mxCell>
        <mxCell id="QSHRZ2VdQ_GqnN1pnhG5-96" value="" style="shape=partialRectangle;html=1;whiteSpace=wrap;connectable=0;strokeColor=inherit;overflow=hidden;fillColor=none;top=0;left=0;bottom=0;right=0;pointerEvents=1;" parent="QSHRZ2VdQ_GqnN1pnhG5-88" vertex="1">
          <mxGeometry x="315" width="45" height="45" as="geometry">
            <mxRectangle width="45" height="45" as="alternateBounds" />
          </mxGeometry>
        </mxCell>
        <mxCell id="QSHRZ2VdQ_GqnN1pnhG5-97" value="" style="shape=partialRectangle;html=1;whiteSpace=wrap;connectable=0;strokeColor=inherit;overflow=hidden;fillColor=none;top=0;left=0;bottom=0;right=0;pointerEvents=1;" parent="QSHRZ2VdQ_GqnN1pnhG5-88" vertex="1">
          <mxGeometry x="360" width="45" height="45" as="geometry">
            <mxRectangle width="45" height="45" as="alternateBounds" />
          </mxGeometry>
        </mxCell>
        <mxCell id="QSHRZ2VdQ_GqnN1pnhG5-98" value="" style="shape=partialRectangle;html=1;whiteSpace=wrap;connectable=0;strokeColor=inherit;overflow=hidden;fillColor=none;top=0;left=0;bottom=0;right=0;pointerEvents=1;" parent="QSHRZ2VdQ_GqnN1pnhG5-88" vertex="1">
          <mxGeometry x="405" width="45" height="45" as="geometry">
            <mxRectangle width="45" height="45" as="alternateBounds" />
          </mxGeometry>
        </mxCell>
        <mxCell id="QSHRZ2VdQ_GqnN1pnhG5-99" value="" style="shape=tableRow;horizontal=0;startSize=0;swimlaneHead=0;swimlaneBody=0;strokeColor=inherit;top=0;left=0;bottom=0;right=0;collapsible=0;dropTarget=0;fillColor=none;points=[[0,0.5],[1,0.5]];portConstraint=eastwest;" parent="QSHRZ2VdQ_GqnN1pnhG5-32" vertex="1">
          <mxGeometry y="270" width="450" height="45" as="geometry" />
        </mxCell>
        <mxCell id="QSHRZ2VdQ_GqnN1pnhG5-100" value="" style="shape=partialRectangle;html=1;whiteSpace=wrap;connectable=0;strokeColor=inherit;overflow=hidden;fillColor=none;top=0;left=0;bottom=0;right=0;pointerEvents=1;" parent="QSHRZ2VdQ_GqnN1pnhG5-99" vertex="1">
          <mxGeometry width="45" height="45" as="geometry">
            <mxRectangle width="45" height="45" as="alternateBounds" />
          </mxGeometry>
        </mxCell>
        <mxCell id="QSHRZ2VdQ_GqnN1pnhG5-101" value="" style="shape=partialRectangle;html=1;whiteSpace=wrap;connectable=0;strokeColor=inherit;overflow=hidden;fillColor=none;top=0;left=0;bottom=0;right=0;pointerEvents=1;" parent="QSHRZ2VdQ_GqnN1pnhG5-99" vertex="1">
          <mxGeometry x="45" width="45" height="45" as="geometry">
            <mxRectangle width="45" height="45" as="alternateBounds" />
          </mxGeometry>
        </mxCell>
        <mxCell id="QSHRZ2VdQ_GqnN1pnhG5-102" value="" style="shape=partialRectangle;html=1;whiteSpace=wrap;connectable=0;strokeColor=inherit;overflow=hidden;fillColor=none;top=0;left=0;bottom=0;right=0;pointerEvents=1;" parent="QSHRZ2VdQ_GqnN1pnhG5-99" vertex="1">
          <mxGeometry x="90" width="45" height="45" as="geometry">
            <mxRectangle width="45" height="45" as="alternateBounds" />
          </mxGeometry>
        </mxCell>
        <mxCell id="QSHRZ2VdQ_GqnN1pnhG5-103" value="" style="shape=partialRectangle;html=1;whiteSpace=wrap;connectable=0;strokeColor=inherit;overflow=hidden;fillColor=none;top=0;left=0;bottom=0;right=0;pointerEvents=1;" parent="QSHRZ2VdQ_GqnN1pnhG5-99" vertex="1">
          <mxGeometry x="135" width="45" height="45" as="geometry">
            <mxRectangle width="45" height="45" as="alternateBounds" />
          </mxGeometry>
        </mxCell>
        <mxCell id="QSHRZ2VdQ_GqnN1pnhG5-104" value="" style="shape=partialRectangle;html=1;whiteSpace=wrap;connectable=0;strokeColor=inherit;overflow=hidden;fillColor=none;top=0;left=0;bottom=0;right=0;pointerEvents=1;" parent="QSHRZ2VdQ_GqnN1pnhG5-99" vertex="1">
          <mxGeometry x="180" width="45" height="45" as="geometry">
            <mxRectangle width="45" height="45" as="alternateBounds" />
          </mxGeometry>
        </mxCell>
        <mxCell id="QSHRZ2VdQ_GqnN1pnhG5-105" value="" style="shape=partialRectangle;html=1;whiteSpace=wrap;connectable=0;strokeColor=inherit;overflow=hidden;fillColor=none;top=0;left=0;bottom=0;right=0;pointerEvents=1;" parent="QSHRZ2VdQ_GqnN1pnhG5-99" vertex="1">
          <mxGeometry x="225" width="45" height="45" as="geometry">
            <mxRectangle width="45" height="45" as="alternateBounds" />
          </mxGeometry>
        </mxCell>
        <mxCell id="QSHRZ2VdQ_GqnN1pnhG5-106" value="" style="shape=partialRectangle;html=1;whiteSpace=wrap;connectable=0;strokeColor=inherit;overflow=hidden;fillColor=none;top=0;left=0;bottom=0;right=0;pointerEvents=1;" parent="QSHRZ2VdQ_GqnN1pnhG5-99" vertex="1">
          <mxGeometry x="270" width="45" height="45" as="geometry">
            <mxRectangle width="45" height="45" as="alternateBounds" />
          </mxGeometry>
        </mxCell>
        <mxCell id="QSHRZ2VdQ_GqnN1pnhG5-107" value="" style="shape=partialRectangle;html=1;whiteSpace=wrap;connectable=0;strokeColor=inherit;overflow=hidden;fillColor=none;top=0;left=0;bottom=0;right=0;pointerEvents=1;" parent="QSHRZ2VdQ_GqnN1pnhG5-99" vertex="1">
          <mxGeometry x="315" width="45" height="45" as="geometry">
            <mxRectangle width="45" height="45" as="alternateBounds" />
          </mxGeometry>
        </mxCell>
        <mxCell id="QSHRZ2VdQ_GqnN1pnhG5-108" value="" style="shape=partialRectangle;html=1;whiteSpace=wrap;connectable=0;strokeColor=inherit;overflow=hidden;fillColor=none;top=0;left=0;bottom=0;right=0;pointerEvents=1;" parent="QSHRZ2VdQ_GqnN1pnhG5-99" vertex="1">
          <mxGeometry x="360" width="45" height="45" as="geometry">
            <mxRectangle width="45" height="45" as="alternateBounds" />
          </mxGeometry>
        </mxCell>
        <mxCell id="QSHRZ2VdQ_GqnN1pnhG5-109" value="" style="shape=partialRectangle;html=1;whiteSpace=wrap;connectable=0;strokeColor=inherit;overflow=hidden;fillColor=none;top=0;left=0;bottom=0;right=0;pointerEvents=1;" parent="QSHRZ2VdQ_GqnN1pnhG5-99" vertex="1">
          <mxGeometry x="405" width="45" height="45" as="geometry">
            <mxRectangle width="45" height="45" as="alternateBounds" />
          </mxGeometry>
        </mxCell>
        <mxCell id="QSHRZ2VdQ_GqnN1pnhG5-110" value="" style="shape=tableRow;horizontal=0;startSize=0;swimlaneHead=0;swimlaneBody=0;strokeColor=inherit;top=0;left=0;bottom=0;right=0;collapsible=0;dropTarget=0;fillColor=none;points=[[0,0.5],[1,0.5]];portConstraint=eastwest;" parent="QSHRZ2VdQ_GqnN1pnhG5-32" vertex="1">
          <mxGeometry y="315" width="450" height="45" as="geometry" />
        </mxCell>
        <mxCell id="QSHRZ2VdQ_GqnN1pnhG5-111" value="" style="shape=partialRectangle;html=1;whiteSpace=wrap;connectable=0;strokeColor=inherit;overflow=hidden;fillColor=none;top=0;left=0;bottom=0;right=0;pointerEvents=1;" parent="QSHRZ2VdQ_GqnN1pnhG5-110" vertex="1">
          <mxGeometry width="45" height="45" as="geometry">
            <mxRectangle width="45" height="45" as="alternateBounds" />
          </mxGeometry>
        </mxCell>
        <mxCell id="QSHRZ2VdQ_GqnN1pnhG5-112" value="" style="shape=partialRectangle;html=1;whiteSpace=wrap;connectable=0;strokeColor=inherit;overflow=hidden;fillColor=none;top=0;left=0;bottom=0;right=0;pointerEvents=1;" parent="QSHRZ2VdQ_GqnN1pnhG5-110" vertex="1">
          <mxGeometry x="45" width="45" height="45" as="geometry">
            <mxRectangle width="45" height="45" as="alternateBounds" />
          </mxGeometry>
        </mxCell>
        <mxCell id="QSHRZ2VdQ_GqnN1pnhG5-113" value="" style="shape=partialRectangle;html=1;whiteSpace=wrap;connectable=0;strokeColor=inherit;overflow=hidden;fillColor=none;top=0;left=0;bottom=0;right=0;pointerEvents=1;" parent="QSHRZ2VdQ_GqnN1pnhG5-110" vertex="1">
          <mxGeometry x="90" width="45" height="45" as="geometry">
            <mxRectangle width="45" height="45" as="alternateBounds" />
          </mxGeometry>
        </mxCell>
        <mxCell id="QSHRZ2VdQ_GqnN1pnhG5-114" value="" style="shape=partialRectangle;html=1;whiteSpace=wrap;connectable=0;strokeColor=inherit;overflow=hidden;fillColor=none;top=0;left=0;bottom=0;right=0;pointerEvents=1;" parent="QSHRZ2VdQ_GqnN1pnhG5-110" vertex="1">
          <mxGeometry x="135" width="45" height="45" as="geometry">
            <mxRectangle width="45" height="45" as="alternateBounds" />
          </mxGeometry>
        </mxCell>
        <mxCell id="QSHRZ2VdQ_GqnN1pnhG5-115" value="" style="shape=partialRectangle;html=1;whiteSpace=wrap;connectable=0;strokeColor=inherit;overflow=hidden;fillColor=none;top=0;left=0;bottom=0;right=0;pointerEvents=1;" parent="QSHRZ2VdQ_GqnN1pnhG5-110" vertex="1">
          <mxGeometry x="180" width="45" height="45" as="geometry">
            <mxRectangle width="45" height="45" as="alternateBounds" />
          </mxGeometry>
        </mxCell>
        <mxCell id="QSHRZ2VdQ_GqnN1pnhG5-116" value="" style="shape=partialRectangle;html=1;whiteSpace=wrap;connectable=0;strokeColor=inherit;overflow=hidden;fillColor=none;top=0;left=0;bottom=0;right=0;pointerEvents=1;" parent="QSHRZ2VdQ_GqnN1pnhG5-110" vertex="1">
          <mxGeometry x="225" width="45" height="45" as="geometry">
            <mxRectangle width="45" height="45" as="alternateBounds" />
          </mxGeometry>
        </mxCell>
        <mxCell id="QSHRZ2VdQ_GqnN1pnhG5-117" value="" style="shape=partialRectangle;html=1;whiteSpace=wrap;connectable=0;strokeColor=inherit;overflow=hidden;fillColor=none;top=0;left=0;bottom=0;right=0;pointerEvents=1;" parent="QSHRZ2VdQ_GqnN1pnhG5-110" vertex="1">
          <mxGeometry x="270" width="45" height="45" as="geometry">
            <mxRectangle width="45" height="45" as="alternateBounds" />
          </mxGeometry>
        </mxCell>
        <mxCell id="QSHRZ2VdQ_GqnN1pnhG5-118" value="" style="shape=partialRectangle;html=1;whiteSpace=wrap;connectable=0;strokeColor=inherit;overflow=hidden;fillColor=none;top=0;left=0;bottom=0;right=0;pointerEvents=1;" parent="QSHRZ2VdQ_GqnN1pnhG5-110" vertex="1">
          <mxGeometry x="315" width="45" height="45" as="geometry">
            <mxRectangle width="45" height="45" as="alternateBounds" />
          </mxGeometry>
        </mxCell>
        <mxCell id="QSHRZ2VdQ_GqnN1pnhG5-119" value="" style="shape=partialRectangle;html=1;whiteSpace=wrap;connectable=0;strokeColor=inherit;overflow=hidden;fillColor=none;top=0;left=0;bottom=0;right=0;pointerEvents=1;" parent="QSHRZ2VdQ_GqnN1pnhG5-110" vertex="1">
          <mxGeometry x="360" width="45" height="45" as="geometry">
            <mxRectangle width="45" height="45" as="alternateBounds" />
          </mxGeometry>
        </mxCell>
        <mxCell id="QSHRZ2VdQ_GqnN1pnhG5-120" value="" style="shape=partialRectangle;html=1;whiteSpace=wrap;connectable=0;strokeColor=inherit;overflow=hidden;fillColor=none;top=0;left=0;bottom=0;right=0;pointerEvents=1;" parent="QSHRZ2VdQ_GqnN1pnhG5-110" vertex="1">
          <mxGeometry x="405" width="45" height="45" as="geometry">
            <mxRectangle width="45" height="45" as="alternateBounds" />
          </mxGeometry>
        </mxCell>
        <mxCell id="QSHRZ2VdQ_GqnN1pnhG5-121" value="" style="shape=tableRow;horizontal=0;startSize=0;swimlaneHead=0;swimlaneBody=0;strokeColor=inherit;top=0;left=0;bottom=0;right=0;collapsible=0;dropTarget=0;fillColor=none;points=[[0,0.5],[1,0.5]];portConstraint=eastwest;" parent="QSHRZ2VdQ_GqnN1pnhG5-32" vertex="1">
          <mxGeometry y="360" width="450" height="45" as="geometry" />
        </mxCell>
        <mxCell id="QSHRZ2VdQ_GqnN1pnhG5-122" value="" style="shape=partialRectangle;html=1;whiteSpace=wrap;connectable=0;strokeColor=inherit;overflow=hidden;fillColor=none;top=0;left=0;bottom=0;right=0;pointerEvents=1;" parent="QSHRZ2VdQ_GqnN1pnhG5-121" vertex="1">
          <mxGeometry width="45" height="45" as="geometry">
            <mxRectangle width="45" height="45" as="alternateBounds" />
          </mxGeometry>
        </mxCell>
        <mxCell id="QSHRZ2VdQ_GqnN1pnhG5-123" value="" style="shape=partialRectangle;html=1;whiteSpace=wrap;connectable=0;strokeColor=inherit;overflow=hidden;fillColor=none;top=0;left=0;bottom=0;right=0;pointerEvents=1;" parent="QSHRZ2VdQ_GqnN1pnhG5-121" vertex="1">
          <mxGeometry x="45" width="45" height="45" as="geometry">
            <mxRectangle width="45" height="45" as="alternateBounds" />
          </mxGeometry>
        </mxCell>
        <mxCell id="QSHRZ2VdQ_GqnN1pnhG5-124" value="" style="shape=partialRectangle;html=1;whiteSpace=wrap;connectable=0;strokeColor=inherit;overflow=hidden;fillColor=none;top=0;left=0;bottom=0;right=0;pointerEvents=1;" parent="QSHRZ2VdQ_GqnN1pnhG5-121" vertex="1">
          <mxGeometry x="90" width="45" height="45" as="geometry">
            <mxRectangle width="45" height="45" as="alternateBounds" />
          </mxGeometry>
        </mxCell>
        <mxCell id="QSHRZ2VdQ_GqnN1pnhG5-125" value="" style="shape=partialRectangle;html=1;whiteSpace=wrap;connectable=0;strokeColor=inherit;overflow=hidden;fillColor=none;top=0;left=0;bottom=0;right=0;pointerEvents=1;" parent="QSHRZ2VdQ_GqnN1pnhG5-121" vertex="1">
          <mxGeometry x="135" width="45" height="45" as="geometry">
            <mxRectangle width="45" height="45" as="alternateBounds" />
          </mxGeometry>
        </mxCell>
        <mxCell id="QSHRZ2VdQ_GqnN1pnhG5-126" value="" style="shape=partialRectangle;html=1;whiteSpace=wrap;connectable=0;strokeColor=inherit;overflow=hidden;fillColor=none;top=0;left=0;bottom=0;right=0;pointerEvents=1;" parent="QSHRZ2VdQ_GqnN1pnhG5-121" vertex="1">
          <mxGeometry x="180" width="45" height="45" as="geometry">
            <mxRectangle width="45" height="45" as="alternateBounds" />
          </mxGeometry>
        </mxCell>
        <mxCell id="QSHRZ2VdQ_GqnN1pnhG5-127" value="" style="shape=partialRectangle;html=1;whiteSpace=wrap;connectable=0;strokeColor=inherit;overflow=hidden;fillColor=none;top=0;left=0;bottom=0;right=0;pointerEvents=1;" parent="QSHRZ2VdQ_GqnN1pnhG5-121" vertex="1">
          <mxGeometry x="225" width="45" height="45" as="geometry">
            <mxRectangle width="45" height="45" as="alternateBounds" />
          </mxGeometry>
        </mxCell>
        <mxCell id="QSHRZ2VdQ_GqnN1pnhG5-128" value="" style="shape=partialRectangle;html=1;whiteSpace=wrap;connectable=0;strokeColor=inherit;overflow=hidden;fillColor=none;top=0;left=0;bottom=0;right=0;pointerEvents=1;" parent="QSHRZ2VdQ_GqnN1pnhG5-121" vertex="1">
          <mxGeometry x="270" width="45" height="45" as="geometry">
            <mxRectangle width="45" height="45" as="alternateBounds" />
          </mxGeometry>
        </mxCell>
        <mxCell id="QSHRZ2VdQ_GqnN1pnhG5-129" value="" style="shape=partialRectangle;html=1;whiteSpace=wrap;connectable=0;strokeColor=inherit;overflow=hidden;fillColor=none;top=0;left=0;bottom=0;right=0;pointerEvents=1;" parent="QSHRZ2VdQ_GqnN1pnhG5-121" vertex="1">
          <mxGeometry x="315" width="45" height="45" as="geometry">
            <mxRectangle width="45" height="45" as="alternateBounds" />
          </mxGeometry>
        </mxCell>
        <mxCell id="QSHRZ2VdQ_GqnN1pnhG5-130" value="" style="shape=partialRectangle;html=1;whiteSpace=wrap;connectable=0;strokeColor=inherit;overflow=hidden;fillColor=none;top=0;left=0;bottom=0;right=0;pointerEvents=1;" parent="QSHRZ2VdQ_GqnN1pnhG5-121" vertex="1">
          <mxGeometry x="360" width="45" height="45" as="geometry">
            <mxRectangle width="45" height="45" as="alternateBounds" />
          </mxGeometry>
        </mxCell>
        <mxCell id="QSHRZ2VdQ_GqnN1pnhG5-131" value="" style="shape=partialRectangle;html=1;whiteSpace=wrap;connectable=0;strokeColor=inherit;overflow=hidden;fillColor=none;top=0;left=0;bottom=0;right=0;pointerEvents=1;" parent="QSHRZ2VdQ_GqnN1pnhG5-121" vertex="1">
          <mxGeometry x="405" width="45" height="45" as="geometry">
            <mxRectangle width="45" height="45" as="alternateBounds" />
          </mxGeometry>
        </mxCell>
        <mxCell id="QSHRZ2VdQ_GqnN1pnhG5-132" value="" style="shape=tableRow;horizontal=0;startSize=0;swimlaneHead=0;swimlaneBody=0;strokeColor=inherit;top=0;left=0;bottom=0;right=0;collapsible=0;dropTarget=0;fillColor=none;points=[[0,0.5],[1,0.5]];portConstraint=eastwest;" parent="QSHRZ2VdQ_GqnN1pnhG5-32" vertex="1">
          <mxGeometry y="405" width="450" height="45" as="geometry" />
        </mxCell>
        <mxCell id="QSHRZ2VdQ_GqnN1pnhG5-133" value="" style="shape=partialRectangle;html=1;whiteSpace=wrap;connectable=0;strokeColor=inherit;overflow=hidden;fillColor=none;top=0;left=0;bottom=0;right=0;pointerEvents=1;" parent="QSHRZ2VdQ_GqnN1pnhG5-132" vertex="1">
          <mxGeometry width="45" height="45" as="geometry">
            <mxRectangle width="45" height="45" as="alternateBounds" />
          </mxGeometry>
        </mxCell>
        <mxCell id="QSHRZ2VdQ_GqnN1pnhG5-134" value="" style="shape=partialRectangle;html=1;whiteSpace=wrap;connectable=0;strokeColor=inherit;overflow=hidden;fillColor=none;top=0;left=0;bottom=0;right=0;pointerEvents=1;" parent="QSHRZ2VdQ_GqnN1pnhG5-132" vertex="1">
          <mxGeometry x="45" width="45" height="45" as="geometry">
            <mxRectangle width="45" height="45" as="alternateBounds" />
          </mxGeometry>
        </mxCell>
        <mxCell id="QSHRZ2VdQ_GqnN1pnhG5-135" value="" style="shape=partialRectangle;html=1;whiteSpace=wrap;connectable=0;strokeColor=inherit;overflow=hidden;fillColor=none;top=0;left=0;bottom=0;right=0;pointerEvents=1;" parent="QSHRZ2VdQ_GqnN1pnhG5-132" vertex="1">
          <mxGeometry x="90" width="45" height="45" as="geometry">
            <mxRectangle width="45" height="45" as="alternateBounds" />
          </mxGeometry>
        </mxCell>
        <mxCell id="QSHRZ2VdQ_GqnN1pnhG5-136" value="" style="shape=partialRectangle;html=1;whiteSpace=wrap;connectable=0;strokeColor=inherit;overflow=hidden;fillColor=none;top=0;left=0;bottom=0;right=0;pointerEvents=1;" parent="QSHRZ2VdQ_GqnN1pnhG5-132" vertex="1">
          <mxGeometry x="135" width="45" height="45" as="geometry">
            <mxRectangle width="45" height="45" as="alternateBounds" />
          </mxGeometry>
        </mxCell>
        <mxCell id="QSHRZ2VdQ_GqnN1pnhG5-137" value="" style="shape=partialRectangle;html=1;whiteSpace=wrap;connectable=0;strokeColor=inherit;overflow=hidden;fillColor=none;top=0;left=0;bottom=0;right=0;pointerEvents=1;" parent="QSHRZ2VdQ_GqnN1pnhG5-132" vertex="1">
          <mxGeometry x="180" width="45" height="45" as="geometry">
            <mxRectangle width="45" height="45" as="alternateBounds" />
          </mxGeometry>
        </mxCell>
        <mxCell id="QSHRZ2VdQ_GqnN1pnhG5-138" value="" style="shape=partialRectangle;html=1;whiteSpace=wrap;connectable=0;strokeColor=inherit;overflow=hidden;fillColor=none;top=0;left=0;bottom=0;right=0;pointerEvents=1;" parent="QSHRZ2VdQ_GqnN1pnhG5-132" vertex="1">
          <mxGeometry x="225" width="45" height="45" as="geometry">
            <mxRectangle width="45" height="45" as="alternateBounds" />
          </mxGeometry>
        </mxCell>
        <mxCell id="QSHRZ2VdQ_GqnN1pnhG5-139" value="" style="shape=partialRectangle;html=1;whiteSpace=wrap;connectable=0;strokeColor=inherit;overflow=hidden;fillColor=none;top=0;left=0;bottom=0;right=0;pointerEvents=1;" parent="QSHRZ2VdQ_GqnN1pnhG5-132" vertex="1">
          <mxGeometry x="270" width="45" height="45" as="geometry">
            <mxRectangle width="45" height="45" as="alternateBounds" />
          </mxGeometry>
        </mxCell>
        <mxCell id="QSHRZ2VdQ_GqnN1pnhG5-140" value="" style="shape=partialRectangle;html=1;whiteSpace=wrap;connectable=0;strokeColor=inherit;overflow=hidden;fillColor=none;top=0;left=0;bottom=0;right=0;pointerEvents=1;" parent="QSHRZ2VdQ_GqnN1pnhG5-132" vertex="1">
          <mxGeometry x="315" width="45" height="45" as="geometry">
            <mxRectangle width="45" height="45" as="alternateBounds" />
          </mxGeometry>
        </mxCell>
        <mxCell id="QSHRZ2VdQ_GqnN1pnhG5-141" value="" style="shape=partialRectangle;html=1;whiteSpace=wrap;connectable=0;strokeColor=inherit;overflow=hidden;fillColor=none;top=0;left=0;bottom=0;right=0;pointerEvents=1;" parent="QSHRZ2VdQ_GqnN1pnhG5-132" vertex="1">
          <mxGeometry x="360" width="45" height="45" as="geometry">
            <mxRectangle width="45" height="45" as="alternateBounds" />
          </mxGeometry>
        </mxCell>
        <mxCell id="QSHRZ2VdQ_GqnN1pnhG5-142" value="" style="shape=partialRectangle;html=1;whiteSpace=wrap;connectable=0;strokeColor=inherit;overflow=hidden;fillColor=none;top=0;left=0;bottom=0;right=0;pointerEvents=1;" parent="QSHRZ2VdQ_GqnN1pnhG5-132" vertex="1">
          <mxGeometry x="405" width="45" height="45" as="geometry">
            <mxRectangle width="45" height="45" as="alternateBounds" />
          </mxGeometry>
        </mxCell>
        <mxCell id="QSHRZ2VdQ_GqnN1pnhG5-177" value="" style="edgeStyle=none;orthogonalLoop=1;jettySize=auto;html=1;rounded=0;strokeWidth=1;fillColor=#f8cecc;strokeColor=#000000;endArrow=none;endFill=0;exitX=0;exitY=0.002;exitDx=0;exitDy=0;exitPerimeter=0;entryX=1;entryY=1;entryDx=0;entryDy=0;" parent="QSHRZ2VdQ_GqnN1pnhG5-32" source="QSHRZ2VdQ_GqnN1pnhG5-33" target="QSHRZ2VdQ_GqnN1pnhG5-32" edge="1">
          <mxGeometry width="80" relative="1" as="geometry">
            <mxPoint x="70" y="10" as="sourcePoint" />
            <mxPoint x="460" y="440" as="targetPoint" />
            <Array as="points" />
          </mxGeometry>
        </mxCell>
        <mxCell id="QSHRZ2VdQ_GqnN1pnhG5-202" value="" style="group" parent="1" vertex="1" connectable="0">
          <mxGeometry x="674" y="-2337" width="450.00000000000006" height="450" as="geometry" />
        </mxCell>
        <mxCell id="QSHRZ2VdQ_GqnN1pnhG5-203" value="&lt;b&gt;&lt;font style=&quot;font-size: 30px;&quot;&gt;N&lt;/font&gt;&lt;/b&gt;" style="text;strokeColor=default;align=center;fillColor=none;html=1;verticalAlign=middle;whiteSpace=wrap;rounded=0;" parent="QSHRZ2VdQ_GqnN1pnhG5-202" vertex="1">
          <mxGeometry x="420.00000000000006" width="30" height="30" as="geometry" />
        </mxCell>
        <mxCell id="QSHRZ2VdQ_GqnN1pnhG5-204" value="&lt;b&gt;&lt;font style=&quot;font-size: 30px;&quot;&gt;E&lt;/font&gt;&lt;/b&gt;" style="text;strokeColor=default;align=center;fillColor=default;html=1;verticalAlign=middle;whiteSpace=wrap;rounded=0;" parent="QSHRZ2VdQ_GqnN1pnhG5-202" vertex="1">
          <mxGeometry x="420.00000000000006" y="420" width="30" height="30" as="geometry" />
        </mxCell>
        <mxCell id="QSHRZ2VdQ_GqnN1pnhG5-205" value="&lt;b&gt;&lt;font style=&quot;font-size: 30px;&quot;&gt;S&lt;/font&gt;&lt;/b&gt;" style="text;strokeColor=default;align=center;fillColor=none;html=1;verticalAlign=middle;whiteSpace=wrap;rounded=0;" parent="QSHRZ2VdQ_GqnN1pnhG5-202" vertex="1">
          <mxGeometry y="420" width="30" height="30" as="geometry" />
        </mxCell>
        <mxCell id="QSHRZ2VdQ_GqnN1pnhG5-206" value="&lt;b&gt;&lt;font style=&quot;font-size: 30px;&quot;&gt;W&lt;/font&gt;&lt;/b&gt;" style="text;strokeColor=default;align=center;fillColor=default;html=1;verticalAlign=middle;whiteSpace=wrap;rounded=0;" parent="QSHRZ2VdQ_GqnN1pnhG5-202" vertex="1">
          <mxGeometry x="2.2737367544323206e-13" width="30" height="30" as="geometry" />
        </mxCell>
        <mxCell id="bqaiC2lHmsOSbu-p6EQ5-4" value="&lt;font style=&quot;font-size: 15px;&quot;&gt;0.25&lt;/font&gt;" style="text;html=1;align=center;verticalAlign=middle;resizable=0;points=[];autosize=1;strokeColor=none;fillColor=none;" vertex="1" parent="1">
          <mxGeometry x="894" y="-1882" width="50" height="30" as="geometry" />
        </mxCell>
        <mxCell id="bqaiC2lHmsOSbu-p6EQ5-13" value="" style="group;flipV=0;flipH=0;" vertex="1" connectable="0" parent="1">
          <mxGeometry x="900" y="-2230" width="92" height="117" as="geometry" />
        </mxCell>
        <mxCell id="bqaiC2lHmsOSbu-p6EQ5-14" value="" style="edgeStyle=none;orthogonalLoop=1;jettySize=auto;html=1;rounded=0;strokeWidth=4;fillColor=#f8cecc;strokeColor=#b85450;curved=0;startArrow=none;startFill=0;targetPerimeterSpacing=0;sourcePerimeterSpacing=0;jumpStyle=none;flowAnimation=0;shadow=0;endSize=6;startSize=6;" edge="1" parent="bqaiC2lHmsOSbu-p6EQ5-13">
          <mxGeometry width="80" relative="1" as="geometry">
            <mxPoint y="117" as="sourcePoint" />
            <mxPoint x="80" y="117" as="targetPoint" />
            <Array as="points" />
          </mxGeometry>
        </mxCell>
        <mxCell id="bqaiC2lHmsOSbu-p6EQ5-15" value="" style="edgeStyle=none;orthogonalLoop=1;jettySize=auto;html=1;rounded=0;strokeWidth=4;fillColor=#f8cecc;strokeColor=#B85450;curved=0;linecap=round;" edge="1" parent="bqaiC2lHmsOSbu-p6EQ5-13">
          <mxGeometry width="80" relative="1" as="geometry">
            <mxPoint y="117" as="sourcePoint" />
            <mxPoint x="70" as="targetPoint" />
            <Array as="points" />
          </mxGeometry>
        </mxCell>
        <mxCell id="bqaiC2lHmsOSbu-p6EQ5-16" value="" style="orthogonalLoop=1;jettySize=auto;html=1;rounded=0;endArrow=none;endFill=0;strokeColor=#B85450;strokeWidth=4;edgeStyle=orthogonalEdgeStyle;curved=1;" edge="1" parent="bqaiC2lHmsOSbu-p6EQ5-13">
          <mxGeometry width="80" relative="1" as="geometry">
            <mxPoint x="20" y="80" as="sourcePoint" />
            <mxPoint x="40.25" y="117" as="targetPoint" />
            <Array as="points">
              <mxPoint x="50" y="80" />
              <mxPoint x="50" y="117" />
            </Array>
          </mxGeometry>
        </mxCell>
        <mxCell id="bqaiC2lHmsOSbu-p6EQ5-17" value="&lt;font style=&quot;font-size: 15px;&quot;&gt;0.75&lt;/font&gt;" style="text;html=1;align=center;verticalAlign=middle;resizable=0;points=[];autosize=1;strokeColor=none;fillColor=none;" vertex="1" parent="1">
          <mxGeometry x="939" y="-1882" width="50" height="30" as="geometry" />
        </mxCell>
        <mxCell id="bqaiC2lHmsOSbu-p6EQ5-18" value="&lt;font style=&quot;font-size: 15px;&quot;&gt;1.25&lt;/font&gt;" style="text;html=1;align=center;verticalAlign=middle;resizable=0;points=[];autosize=1;strokeColor=none;fillColor=none;" vertex="1" parent="1">
          <mxGeometry x="984" y="-1882" width="50" height="30" as="geometry" />
        </mxCell>
        <mxCell id="bqaiC2lHmsOSbu-p6EQ5-19" value="&lt;font style=&quot;font-size: 15px;&quot;&gt;1.75&lt;/font&gt;" style="text;html=1;align=center;verticalAlign=middle;resizable=0;points=[];autosize=1;strokeColor=none;fillColor=none;" vertex="1" parent="1">
          <mxGeometry x="1029" y="-1882" width="50" height="30" as="geometry" />
        </mxCell>
        <mxCell id="bqaiC2lHmsOSbu-p6EQ5-20" value="&lt;font style=&quot;font-size: 15px;&quot;&gt;2&lt;/font&gt;" style="text;html=1;align=center;verticalAlign=middle;resizable=0;points=[];autosize=1;strokeColor=none;fillColor=none;" vertex="1" parent="1">
          <mxGeometry x="1084" y="-1882" width="30" height="30" as="geometry" />
        </mxCell>
        <mxCell id="bqaiC2lHmsOSbu-p6EQ5-21" value="&lt;font style=&quot;font-size: 15px;&quot;&gt;-0.75&lt;/font&gt;" style="text;html=1;align=center;verticalAlign=middle;resizable=0;points=[];autosize=1;strokeColor=none;fillColor=none;" vertex="1" parent="1">
          <mxGeometry x="799" y="-1882" width="60" height="30" as="geometry" />
        </mxCell>
        <mxCell id="bqaiC2lHmsOSbu-p6EQ5-22" value="&lt;font style=&quot;font-size: 15px;&quot;&gt;-1.25&lt;/font&gt;" style="text;html=1;align=center;verticalAlign=middle;resizable=0;points=[];autosize=1;strokeColor=none;fillColor=none;" vertex="1" parent="1">
          <mxGeometry x="754" y="-1882" width="60" height="30" as="geometry" />
        </mxCell>
        <mxCell id="bqaiC2lHmsOSbu-p6EQ5-23" value="&lt;font style=&quot;font-size: 15px;&quot;&gt;-1.75&lt;/font&gt;" style="text;html=1;align=center;verticalAlign=middle;resizable=0;points=[];autosize=1;strokeColor=none;fillColor=none;" vertex="1" parent="1">
          <mxGeometry x="709" y="-1882" width="60" height="30" as="geometry" />
        </mxCell>
        <mxCell id="bqaiC2lHmsOSbu-p6EQ5-24" value="&lt;font style=&quot;font-size: 15px;&quot;&gt;-2&lt;/font&gt;" style="text;html=1;align=center;verticalAlign=middle;resizable=0;points=[];autosize=1;strokeColor=none;fillColor=none;" vertex="1" parent="1">
          <mxGeometry x="674" y="-1882" width="40" height="30" as="geometry" />
        </mxCell>
        <mxCell id="bqaiC2lHmsOSbu-p6EQ5-25" value="&lt;font style=&quot;font-size: 15px;&quot;&gt;-0.25&lt;/font&gt;" style="text;html=1;align=center;verticalAlign=middle;resizable=0;points=[];autosize=1;strokeColor=none;fillColor=none;" vertex="1" parent="1">
          <mxGeometry x="844" y="-1882" width="60" height="30" as="geometry" />
        </mxCell>
        <mxCell id="bqaiC2lHmsOSbu-p6EQ5-26" value="&lt;font style=&quot;font-size: 15px;&quot;&gt;0.25&lt;/font&gt;" style="text;html=1;align=center;verticalAlign=middle;resizable=0;points=[];autosize=1;strokeColor=none;fillColor=none;" vertex="1" parent="1">
          <mxGeometry x="619" y="-2152" width="50" height="30" as="geometry" />
        </mxCell>
        <mxCell id="bqaiC2lHmsOSbu-p6EQ5-27" value="&lt;font style=&quot;font-size: 15px;&quot;&gt;0.75&lt;/font&gt;" style="text;html=1;align=center;verticalAlign=middle;resizable=0;points=[];autosize=1;strokeColor=none;fillColor=none;" vertex="1" parent="1">
          <mxGeometry x="619" y="-2197" width="50" height="30" as="geometry" />
        </mxCell>
        <mxCell id="bqaiC2lHmsOSbu-p6EQ5-28" value="&lt;font style=&quot;font-size: 15px;&quot;&gt;1.25&lt;/font&gt;" style="text;html=1;align=center;verticalAlign=middle;resizable=0;points=[];autosize=1;strokeColor=none;fillColor=none;" vertex="1" parent="1">
          <mxGeometry x="619" y="-2241" width="50" height="30" as="geometry" />
        </mxCell>
        <mxCell id="bqaiC2lHmsOSbu-p6EQ5-29" value="&lt;font style=&quot;font-size: 15px;&quot;&gt;1.75&lt;/font&gt;" style="text;html=1;align=center;verticalAlign=middle;resizable=0;points=[];autosize=1;strokeColor=none;fillColor=none;" vertex="1" parent="1">
          <mxGeometry x="619" y="-2286" width="50" height="30" as="geometry" />
        </mxCell>
        <mxCell id="bqaiC2lHmsOSbu-p6EQ5-30" value="&lt;font style=&quot;font-size: 15px;&quot;&gt;2&lt;/font&gt;" style="text;html=1;align=center;verticalAlign=middle;resizable=0;points=[];autosize=1;strokeColor=none;fillColor=none;" vertex="1" parent="1">
          <mxGeometry x="629" y="-2330" width="30" height="30" as="geometry" />
        </mxCell>
        <mxCell id="bqaiC2lHmsOSbu-p6EQ5-31" value="&lt;font style=&quot;font-size: 15px;&quot;&gt;-0.75&lt;/font&gt;" style="text;html=1;align=center;verticalAlign=middle;resizable=0;points=[];autosize=1;strokeColor=none;fillColor=none;" vertex="1" parent="1">
          <mxGeometry x="614" y="-2063" width="60" height="30" as="geometry" />
        </mxCell>
        <mxCell id="bqaiC2lHmsOSbu-p6EQ5-32" value="&lt;font style=&quot;font-size: 15px;&quot;&gt;-1.25&lt;/font&gt;" style="text;html=1;align=center;verticalAlign=middle;resizable=0;points=[];autosize=1;strokeColor=none;fillColor=none;" vertex="1" parent="1">
          <mxGeometry x="614" y="-2019" width="60" height="30" as="geometry" />
        </mxCell>
        <mxCell id="bqaiC2lHmsOSbu-p6EQ5-33" value="&lt;font style=&quot;font-size: 15px;&quot;&gt;-1.75&lt;/font&gt;" style="text;html=1;align=center;verticalAlign=middle;resizable=0;points=[];autosize=1;strokeColor=none;fillColor=none;" vertex="1" parent="1">
          <mxGeometry x="614" y="-1974" width="60" height="30" as="geometry" />
        </mxCell>
        <mxCell id="bqaiC2lHmsOSbu-p6EQ5-34" value="&lt;font style=&quot;font-size: 15px;&quot;&gt;-2&lt;/font&gt;" style="text;html=1;align=center;verticalAlign=middle;resizable=0;points=[];autosize=1;strokeColor=none;fillColor=none;" vertex="1" parent="1">
          <mxGeometry x="624" y="-1930" width="40" height="30" as="geometry" />
        </mxCell>
        <mxCell id="bqaiC2lHmsOSbu-p6EQ5-35" value="&lt;font style=&quot;font-size: 15px;&quot;&gt;-0.25&lt;/font&gt;" style="text;html=1;align=center;verticalAlign=middle;resizable=0;points=[];autosize=1;strokeColor=none;fillColor=none;" vertex="1" parent="1">
          <mxGeometry x="614" y="-2108" width="60" height="30" as="geometry" />
        </mxCell>
      </root>
    </mxGraphModel>
  </diagram>
</mxfile>
